<?xml version="1.0" encoding="UTF-8" standalone="no"?>
<!DOCTYPE svg PUBLIC "-//W3C//DTD SVG 1.1//EN" "http://www.w3.org/Graphics/SVG/1.1/DTD/svg11.dtd">
<svg width="903" height="178" viewBox="0 0 903 178" version="1.1" xmlns="http://www.w3.org/2000/svg" xmlns:xlink="http://www.w3.org/1999/xlink" xml:space="preserve" xmlns:serif="http://www.serif.com/" style="fill-rule:evenodd;clip-rule:evenodd;stroke-linejoin:round;stroke-miterlimit:2;">
    <g transform="matrix(1,0,0,1,-104.024193,-967.659828)">
        <g>
            <g id="ChatGPT-Image-6-Jun-2026--16.57.53.png" serif:id="ChatGPT Image 6 Jun 2026, 16.57.53.png" transform="matrix(1.035156,0,0,1.035156,0,705)">
                <path d="M649.519,296.99C659.629,297.105 659.573,297.116 669.505,299.485C692.837,309.05 696.956,320.789 701.107,336.551L701.477,340.502C701.527,345.54 701.488,345.461 701.446,350.495C700.749,354.597 700.881,354.519 699.9,358.629C696.766,368.459 693.51,377.559 676.243,387.036C674.606,387.711 672.969,388.387 671.332,389.062C670.907,389.17 623.312,405.453 605.954,360.333C605.522,358.379 605.091,356.425 604.66,354.471L603.937,351.443C603.758,347.908 603.374,342.478 604.044,337.413C604.482,335.262 605.381,326.215 611.893,316.768C618.813,306.728 627.484,302.896 627.666,302.806C632.632,300.721 632.522,300.692 637.594,298.908C639.253,298.544 640.913,298.18 642.572,297.817C644.888,297.541 647.203,297.265 649.519,296.99ZM673.628,325.389C673.026,325.972 671.941,325.846 671.338,326.429C670.996,326.76 672.828,330.187 674.366,330.793C674.893,331.001 674.885,333.766 675.788,334.111C677.481,334.756 677.262,335.102 679.073,335.634C685.72,360.767 667.232,370.031 664.468,371.416C664.323,371.309 663.153,368.729 659.43,370.424C659.057,370.594 658.276,371.846 656.71,370.197C656.523,370 653.637,369.907 656.511,373.591C653.765,373.667 632.86,374.247 626.79,356.399C615.816,324.132 651.153,300.769 673.628,325.389ZM673.628,325.389C677.068,330.145 676.965,330.154 679.073,335.634C677.262,335.102 677.481,334.756 675.788,334.111C674.885,333.766 674.893,331.001 674.366,330.793C672.828,330.187 670.996,326.76 671.338,326.429C671.941,325.846 673.026,325.972 673.628,325.389ZM664.468,371.416C661.816,372.141 659.163,372.866 656.511,373.591C653.637,369.907 656.523,370 656.71,370.197C658.276,371.846 659.057,370.594 659.43,370.424C663.153,368.729 664.323,371.309 664.468,371.416Z" style="fill:white;"/>
                <path d="M891.889,308.522C894.738,297.917 897.557,297.717 927.506,298.317C956.108,298.889 963.4,316.225 968.158,324.648C968.917,326.938 969.676,329.229 970.435,331.52C975.666,355.684 966.965,390.043 922.496,391.065C896.851,391.655 893.334,390.815 891.821,379.495C891.766,371.483 891.766,371.566 891.815,363.499C891.782,356.921 891.788,357.03 891.836,350.5C891.836,346.167 891.837,341.834 891.838,337.501C891.752,322.97 891.667,323.075 891.889,308.522ZM949.743,341.478C949.498,342.105 948.246,341.873 948.001,342.5C947.959,342.608 947.758,347.063 947.786,347.494C947.988,350.61 948.651,350.331 949.615,351.515C948.247,356.271 947.568,365.134 935.605,370.733C932.538,372.168 913.101,375.392 912.54,371.494C912.129,368.64 912.459,322.739 912.489,318.5C912.506,316.132 913.504,315.924 915.503,315.923C926.836,315.917 946.738,315.338 949.743,341.478ZM949.743,341.478C949.839,346.524 949.941,346.446 949.615,351.515C948.651,350.331 947.988,350.61 947.786,347.494C947.758,347.063 947.959,342.608 948.001,342.5C948.246,341.873 949.498,342.105 949.743,341.478Z" style="fill:white;"/>
                <path d="M155.537,316.405C157.105,317.221 158.673,318.038 160.241,318.854C164.725,323.04 164.354,323.32 165.856,328.45L165.961,330.492C165.932,363.848 167.167,370.933 161.139,375.048C153.072,380.555 141.71,385.062 144.695,387.298C156.545,396.175 162.763,398.841 164.475,399.576C169.74,401.131 171.341,401.799 178.417,400.207C182.589,398.495 187.691,396.402 227.721,372.868C228.68,372.304 238.181,366.718 239.691,365.792C248.572,360.347 249.058,359.789 250.829,361.381C250.984,370.506 251.048,370.442 250.446,379.488C249.3,382.695 249.424,382.667 247.818,385.705C243.082,392.129 209.729,413.889 195.458,421.406C191.976,422.687 192.086,422.759 188.484,423.286C181.287,423.105 181.225,423.906 174.432,421.658L170.772,420.034C166.601,417.504 153.857,409.773 120.792,385.104C117.853,383.029 115.017,380.85 114.522,380.47C109.157,376.396 105.953,374.386 103.823,365.418C102.542,354.217 103.696,345.358 103.922,343.63C107.305,335.469 107.943,335.358 136.289,319.141C138.314,317.982 138.262,318.054 140.364,317.126C141.528,316.778 148.619,314.662 155.537,316.405ZM137.394,338.064C126.875,341.226 147.366,347.643 140.539,352.544C136.65,355.335 135.482,354.17 133.575,358.571C132.613,360.793 129.123,356.039 132.798,352.847C135.989,350.075 136.597,349.352 133.978,346.077C131.624,343.134 129.616,336.602 132.457,335.412C133.104,335.14 142.804,331.073 141.236,335.438C140.393,337.783 139.776,337.165 137.394,338.064ZM137.426,363.263C138.146,363.073 138.751,362.558 139.471,362.369C144.037,361.166 140.577,368.504 131.33,366.995C124.022,365.803 136.864,363.369 137.426,363.263Z" style="fill:white;"/>
                <path d="M378.709,299.977C381.22,299.465 381.186,299.08 386.457,299.684C391.688,301.763 392.135,302.57 396.156,308.715C417.427,341.221 417.055,341.415 418.945,344.211C422.641,349.679 423.694,343.617 429.967,333.812C449.132,303.862 448.407,302.798 454.613,299.836C458.87,298.984 459.055,299.515 461.464,299.663C462.013,299.893 466.283,300.738 468.051,305.673C469.625,310.065 468.709,375.437 468.624,381.503C468.61,382.56 468.484,391.521 459.492,391.054C447.132,390.411 450.25,382.64 449.934,352.501C449.787,338.479 451.011,335.046 448.712,335.782C448.671,335.795 435.77,362.454 428.926,369.981C426.218,372.008 425.021,372.591 420.514,372.397L419.552,372.232C418.294,371.833 417.036,371.434 415.779,371.035C415.086,370.453 414.394,369.871 413.701,369.289C412.832,368.287 410.125,365.164 404.356,355.594C403.761,354.685 399.947,348.855 396.97,344.196C394.045,339.465 391.468,334.686 391.413,334.663C389.341,333.784 390.318,339.398 390.32,339.499C391.189,378.763 390.571,382.003 389.88,385.629C386.534,392.908 380.175,390.758 377.555,390.336C375.925,389.541 376.023,389.582 374.506,388.493C371.288,384.033 371.915,383.568 371.911,338.498C371.908,306.669 370.654,304.707 378.709,299.977Z" style="fill:white;"/>
                <path d="M722.598,299.807C725.532,299.291 725.45,299.483 728.499,299.518C732.212,300.471 732.089,300.618 735.111,302.864C737.255,305.788 737.319,305.631 739.182,308.704C741.028,311.734 754.023,333.064 762.968,346.139C765.245,349.466 767.218,343.909 776.659,328.595C792.167,303.437 791.775,302.694 797.319,300.019C799.932,299.404 799.887,299.303 803.481,299.612L804.393,299.831C805.624,300.536 806.855,301.242 808.086,301.948L808.532,302.471C810.672,305.688 810.523,305.717 811.233,309.514C811.46,384.929 810.892,384.962 810.232,386.367C807.418,392.354 792.879,395.159 792.698,380.499C792.316,349.38 792.851,340.985 793.069,337.556C793.697,327.706 780.519,360.554 771.204,370.14C769.926,370.771 768.648,371.402 767.369,372.033C764.471,372.441 764.522,372.44 761.583,372.132C760.636,371.776 759.689,371.42 758.742,371.064C756.452,369.231 752.972,366.443 738.149,340.722C735.955,336.915 736.479,335.002 734.267,336.284C733.63,336.653 735.9,383.31 733.125,387.255C728.694,393.554 715.555,392.366 715.47,381.501C715.424,375.584 714.92,311.068 715.69,307.543C716.395,304.311 716.821,304.569 718.862,301.898C720.108,301.201 721.353,300.504 722.598,299.807Z" style="fill:white;"/>
                <path d="M162.519,258.532C164.107,257.573 174.501,251.293 185.401,254.788C190.484,256.418 232.82,286.094 239.278,290.774C241.86,293.098 241.906,292.947 244.092,295.758C246.183,299.993 246.664,299.845 247.07,304.539C247.616,310.84 246.031,311.162 245.489,311.273C243.934,311.589 210.861,290.602 198.662,284.19C183.672,276.312 183.497,284.609 137.269,311.11C136.259,311.767 135.25,312.424 134.24,313.081C108.659,328.456 109.255,329.706 104.307,330.896C102.922,328.721 103.29,327.821 103.314,317.502C103.437,309.937 103.137,309.987 104.743,302.58C107.026,297.815 105.94,296.002 114.595,289.65C117.561,287.588 121.154,285.228 121.729,284.85C133.219,277.206 133.201,277.326 144.761,269.911C146.623,268.695 148.484,267.478 150.345,266.261C152.138,265.122 153.931,263.983 155.723,262.844C157.989,261.407 160.254,259.969 162.519,258.532Z" style="fill:white;"/>
                <path d="M541.411,299.784C544.809,301.784 544.834,301.709 545.08,301.945C546.97,303.749 548.917,305.608 547.76,334.495C547.75,334.743 547.541,339.961 549.759,336.862C550.721,335.517 570.765,313.519 572.566,311.56C572.832,311.265 574.925,308.937 575.929,307.907C579.471,304.041 579.444,304.062 579.754,303.732C587.142,295.876 597.729,299.385 598.226,307.505C598.682,314.959 570.963,338.782 570.508,341.502C570.187,343.425 596.013,372.081 598.331,374.653C607.118,384.403 597.347,393.927 587.309,389.93C584.353,388.753 584.658,388.333 560.923,360.165C556.798,355.271 556.398,351.292 551.721,355.726C545.184,361.923 548.37,363.349 547.743,383.523C547.519,390.717 532.456,396.557 527.867,383.443C527.681,379.452 527.426,373.962 527.636,333.5C527.561,313.149 527.428,310.214 528.065,306.408C528.951,303.815 529.136,303.998 530.781,301.82C534.282,299.483 535.733,298.847 541.411,299.784Z" style="fill:white;"/>
                <path d="M217.258,318.955C217.922,319.301 218.586,319.646 219.249,319.992C219.816,320.298 224.36,322.753 226.305,323.864C232.768,327.057 241.885,332.222 243.223,332.979C253.424,338.757 255.853,350.783 242.627,357.749C207.009,376.508 204.837,383.169 191.214,374.973C181.349,369.038 175.645,367.127 175.641,357.5C175.634,336.557 173.64,331.276 185.678,324.84C202.038,316.094 202.794,312.238 217.258,318.955ZM193.547,338.582C196.929,336.733 208.207,328.944 205.352,336.432C204.55,338.534 183.844,345.251 201.421,354.65C209.666,359.059 204.121,361.187 203.585,361.095C203.441,361.07 192.385,355.697 189.538,352.466C183.323,345.416 192.585,339.225 193.547,338.582ZM226.707,342.258C222.294,338.877 219.643,338.723 219.294,336.52C218.639,332.379 222.326,334.618 226.407,336.695C251.1,349.259 220.51,360.296 219.623,359.402C214.979,354.727 236.302,352.2 226.707,342.258ZM210.549,357.501C210.794,354.856 210.709,354.849 210.813,354.644C213.261,349.851 214.667,359.301 213.146,361.191C210.773,364.138 210.561,357.861 210.549,357.501ZM210.502,334.5C212.037,325.681 214.88,335.473 213.315,338.386C210.698,343.258 210.51,334.884 210.502,334.5Z" style="fill:white;"/>
                <path d="M304.502,298.51C308.453,298.195 351.963,297.613 355.35,298.907C364.424,302.374 362.037,316.736 352.517,316.875C317.73,317.382 316.507,316.474 316.386,318.48C315.283,336.794 317.011,337.151 318.515,337.162C342.662,337.344 357.815,333.894 354.39,349.471C353.435,353.815 348.168,354.922 347.471,355.069C337.427,355.161 337.515,355.144 327.495,355.157L324.503,355.145C322.493,355.22 320.48,355.147 318.47,355.222C316.153,355.308 316.365,357.395 316.338,357.489C316.23,380.744 318.559,391.181 305.489,390.905C300.184,390.793 300.081,390.429 296.619,386.433C295.79,384.491 295.961,384.547 295.468,382.504C295.213,363.523 295.315,315.322 295.456,307.495C296.015,305.491 295.846,305.539 296.747,303.65C298.536,301.45 298.557,301.615 300.642,299.743C302.546,298.951 302.498,298.995 304.502,298.51Z" style="fill:white;"/>
                <path d="M488.714,305.58C493.842,295.758 506.504,297.315 507.644,308.487C507.946,311.448 507.752,372.899 507.734,378.5C507.697,390.215 503.425,390.207 497.521,391.015C486.318,388.834 488.096,384.78 488.088,353.499C488.077,308.332 488.032,308.325 488.714,305.58Z" style="fill:white;"/>
                <path d="M868.423,299.762C869.303,300.183 874.144,301.63 874.469,308.502C874.624,311.778 874.584,311.715 874.548,349.5C874.518,381.843 876.574,391.228 864.49,390.956C853,390.698 854.921,381.801 854.91,351.499C854.895,307.117 854.507,306.63 857.847,301.879C862.395,298.979 862.559,299.079 868.423,299.762Z" style="fill:white;"/>
                <path d="M488.714,305.58C488.032,308.325 488.077,308.332 488.088,353.499C488.096,384.78 486.318,388.834 497.521,391.015C495.246,394.793 494.506,394.04 494.266,393.796C493.054,392.562 492.954,392.404 491.405,393.051C490.872,393.274 490.035,392.635 489.948,392.342C489.717,391.564 490.121,391.479 490.094,391.373C489.15,387.74 485.023,388.976 485.033,375.496C485.064,334.429 485.674,334.513 485.072,327.55C484.602,322.106 485.553,319.391 485.445,318.512C484.057,307.171 488.181,306.141 488.714,305.58Z" style="fill:white;"/>
                <path d="M137.394,338.064C126.875,341.226 147.366,347.643 140.539,352.544C136.65,355.335 135.482,354.17 133.575,358.571C132.613,360.793 129.123,356.039 132.798,352.847C135.989,350.075 136.597,349.352 133.978,346.077C131.624,343.134 129.616,336.602 132.457,335.412C133.104,335.14 142.804,331.073 141.236,335.438C140.393,337.783 139.776,337.165 137.394,338.064Z" style="fill:white;"/>
                <path d="M396.97,344.196C395.388,344.784 395.359,345.276 394.431,344.601C392.535,343.222 392.085,345.3 392.042,345.5C391.718,347 392.734,384.598 391.5,385.11C391.374,385.162 391.38,385.148 389.88,385.629C390.571,382.003 391.189,378.763 390.32,339.499C390.318,339.398 389.341,333.784 391.413,334.663C391.468,334.686 394.045,339.465 396.97,344.196Z" style="fill:white;"/>
                <path d="M250.829,361.381C251.493,360.624 253.279,358.378 253.317,360.529C253.56,374.34 254.89,374.641 252.5,379.075L250.446,379.488C251.048,370.442 250.984,370.506 250.829,361.381Z" style="fill:white;"/>
                <path d="M137.426,363.263C138.146,363.073 138.751,362.558 139.471,362.369C144.037,361.166 140.577,368.504 131.33,366.995C124.022,365.803 136.864,363.369 137.426,363.263Z" style="fill:white;"/>
                <path d="M104.743,302.58C103.137,309.987 103.437,309.937 103.314,317.502C101.454,315.865 100.566,315.819 101.735,313.561C102.379,312.319 101.395,309.099 101.499,308.5C101.967,305.788 98.938,304.69 101.6,303.831C101.857,303.747 103.333,303.271 104.743,302.58Z" style="fill:white;"/>
                <path d="M324.503,355.145C324.167,359.159 322.436,357.637 318.412,358.138C318.412,358.138 316.504,357.541 316.338,357.489C316.365,357.395 316.153,355.308 318.47,355.222C320.48,355.147 322.493,355.22 324.503,355.145Z" style="fill:white;"/>
                <path d="M949.743,341.478C949.839,346.524 949.941,346.446 949.615,351.515C948.651,350.331 947.988,350.61 947.786,347.494C947.758,347.063 947.959,342.608 948.001,342.5C948.246,341.873 949.498,342.105 949.743,341.478Z" style="fill:white;"/>
                <path d="M808.532,302.471C813.209,301.03 811.55,304.415 812.683,305.361C812.73,305.401 813.887,305.214 813.702,306.547C813.692,306.621 813.609,306.562 813.293,307.388C812.387,309.753 811.692,309.04 811.233,309.514C810.523,305.717 810.672,305.688 808.532,302.471Z" style="fill:white;"/>
                <path d="M162.519,258.532C160.254,259.969 157.989,261.407 155.723,262.844C155.943,262.04 154.792,262.371 155.03,261.5C155.082,261.309 155.072,261.345 156.609,259.598C159.024,256.852 159.661,256.213 162.519,258.532Z" style="fill:white;"/>
                <path d="M968.158,324.648C968.651,324.612 969.006,324.048 969.5,324.012C971.841,323.842 972.351,330.044 971.99,330.5C971.605,330.986 970.82,331.034 970.435,331.52C969.676,329.229 968.917,326.938 968.158,324.648Z" style="fill:white;"/>
                <path d="M676.243,387.036C677.589,389.84 677.669,391.099 674.535,391.117C671.043,391.136 671.997,389.489 671.332,389.062C672.969,388.387 674.606,387.711 676.243,387.036Z" style="fill:white;"/>
                <path d="M649.519,296.99C647.203,297.265 644.888,297.541 642.572,297.817C638.202,294.181 643.351,295.205 643.552,295.288C645.051,295.904 645.048,295.761 646.5,295.048C646.799,294.901 647.22,294.868 647.5,295.048C648.285,295.553 648.734,296.485 649.519,296.99Z" style="fill:white;"/>
                <path d="M701.446,350.495C701.812,350.948 702.507,351.048 702.873,351.5C703.343,352.08 703.256,357.56 702.116,358.005C701.944,358.071 701.952,358.051 699.9,358.629C700.881,354.519 700.749,354.597 701.446,350.495Z" style="fill:white;"/>
                <path d="M150.345,266.261C148.484,267.478 146.623,268.695 144.761,269.911C144.734,269.21 143.532,269.141 144.673,267.671C146.522,265.289 146.925,263.739 150.345,266.261Z" style="fill:white;"/>
                <path d="M761.583,372.132C764.522,372.44 764.471,372.441 767.369,372.033C766.548,374.016 766.986,375.046 764.503,374.694C763.774,374.59 762.375,375.381 761.503,374.497C760.99,373.977 761.003,373.589 761.006,373.5C761.033,372.725 761.555,372.961 761.583,372.132Z" style="fill:white;"/>
                <path d="M195.458,421.406C195.098,424.068 194.754,423.952 192.396,425.155C190.205,426.272 190.419,424.91 188.484,423.286C192.086,422.759 191.976,422.687 195.458,421.406Z" style="fill:white;"/>
                <path d="M604.66,354.471C605.091,356.425 605.522,358.379 605.954,360.333C605.059,360.404 605.382,361.081 604.5,361.151C604.427,361.157 604.066,361.186 603.849,360.5C603.724,360.104 604.113,359.612 603.9,359.256C603.636,358.816 602.966,358.789 602.606,358.424C601.526,357.326 602.501,357.213 604.66,354.471Z" style="fill:white;"/>
                <path d="M239.278,290.774C241.484,289.761 241.887,289.733 243.259,291.728C244.673,293.784 245.145,293.3 245.211,293.5C245.274,293.692 245.13,293.664 244.092,295.758C241.906,292.947 241.86,293.098 239.278,290.774Z" style="fill:white;"/>
                <path d="M378.709,299.977C379.825,297.509 379.909,296.849 382.493,297.523C384.859,298.141 385.296,297.559 386.457,299.684C381.186,299.08 381.22,299.465 378.709,299.977Z" style="fill:white;"/>
                <path d="M454.613,299.836C455.986,297.219 456.524,297.756 459.5,297.943C460.978,298.036 460.767,298.408 461.464,299.663C459.055,299.515 458.87,298.984 454.613,299.836Z" style="fill:white;"/>
                <path d="M758.742,371.064C759.689,371.42 760.636,371.776 761.583,372.132C761.15,372.305 760.666,372.327 760.233,372.5C759.65,372.733 756.81,377.178 756.027,373.525C755.966,373.238 755.877,372.825 758.742,371.064Z" style="fill:white;"/>
                <path d="M374.506,388.493C376.023,389.582 375.925,389.541 377.555,390.336C376.655,392.647 375.656,393.739 374.503,391.498C374.202,390.914 374.166,391.057 373.908,390.5C373.266,389.113 374.499,388.518 374.506,388.493Z" style="fill:white;"/>
                <path d="M295.468,382.504C295.961,384.547 295.79,384.491 296.619,386.433C295.916,386.469 295.309,387.035 294.606,387.071C294.234,387.091 290.276,386.264 295.468,382.504Z" style="fill:white;"/>
                <path d="M722.598,299.807C723.435,298.016 723.597,298.159 725.472,297.4C727.436,296.606 727.133,297.769 728.499,299.518C725.45,299.483 725.532,299.291 722.598,299.807Z" style="fill:white;"/>
                <path d="M170.772,420.034L174.432,421.658C172.838,422.876 173.06,423.223 171.473,423.406C169.002,423.691 169.807,422.334 170.772,420.034Z" style="fill:white;"/>
                <path d="M296.747,303.65C295.846,305.539 296.015,305.491 295.456,307.495C295.422,307.45 291.225,304.707 294.33,303.246C295.52,302.686 295.489,303.184 296.747,303.65Z" style="fill:white;"/>
                <path d="M701.107,336.551C701.743,336.296 701.864,335.294 702.5,335.039C702.646,334.981 703.844,336.156 703.769,337.495C703.683,339.021 703.261,338.752 701.477,340.502L701.107,336.551Z" style="fill:white;"/>
                <path d="M137.269,311.11C137.735,312.163 138.431,311.458 138.892,312.5C138.928,312.581 138.924,312.571 138.294,313.427C136.779,315.486 136.301,314.55 134.24,313.081C135.25,312.424 136.259,311.767 137.269,311.11Z" style="fill:white;"/>
                <path d="M803.481,299.612C799.887,299.303 799.932,299.404 797.319,300.019C797.37,299.885 800.569,294.026 803.481,299.612Z" style="fill:white;"/>
                <path d="M415.779,371.035C417.036,371.434 418.294,371.833 419.552,372.232C418.617,373.047 417.404,374.26 416.487,374.124C414.356,373.808 414.856,372.974 415.779,371.035Z" style="fill:white;"/>
                <path d="M304.502,298.51C302.498,298.995 302.546,298.951 300.642,299.743C300.233,298.597 299.555,298.368 300.667,297.725C302.065,296.917 302.035,296.24 303.5,297.063C304.011,297.35 303.99,298.222 304.502,298.51Z" style="fill:white;"/>
                <path d="M722.598,299.807C721.353,300.504 720.108,301.201 718.862,301.898C718.85,301.367 718.109,301.031 718.097,300.5C718.088,300.136 718.651,300.002 718.812,299.676C719.246,298.799 719.531,297.683 722.598,299.807Z" style="fill:white;"/>
                <path d="M804.393,299.831C806.645,298.786 807.07,296.434 808.075,298.722C808.179,298.959 808.229,299.073 808.086,301.948C806.855,301.242 805.624,300.536 804.393,299.831Z" style="fill:white;"/>
            </g>
        </g>
    </g>
</svg>
