<?xml version="1.0" encoding="UTF-8" standalone="no"?>
<!DOCTYPE svg PUBLIC "-//W3C//DTD SVG 1.1//EN" "http://www.w3.org/Graphics/SVG/1.1/DTD/svg11.dtd">
<svg width="905" height="175" viewBox="0 0 905 175" version="1.1" xmlns="http://www.w3.org/2000/svg" xmlns:xlink="http://www.w3.org/1999/xlink" xml:space="preserve" xmlns:serif="http://www.serif.com/" style="fill-rule:evenodd;clip-rule:evenodd;stroke-linejoin:round;stroke-miterlimit:2;">
    <g transform="matrix(1,0,0,1,-103.11954,-198.202276)">
        <g id="ChatGPT-Image-6-Jun-2026--17.03.02.png" serif:id="ChatGPT Image 6 Jun 2026, 17.03.02.png" transform="matrix(1,0,0,1,8,7)">
            <path d="M662.499,240.475C672.043,240.584 671.975,239.892 681.503,240.55C681.815,240.585 683.459,240.768 685.425,240.705C688.951,241.756 688.878,241.714 692.497,242.519C694.359,243.439 694.313,243.328 696.231,243.889C696.649,244.106 697.067,244.322 697.485,244.539C698.127,244.898 698.77,245.258 699.412,245.618C702.361,247.703 702.527,247.305 705.507,249.489C706.344,250.234 706.286,250.226 707.321,250.645C710.798,255.415 712.493,255.321 715.59,260.451C718.265,264.883 718.01,264.947 720.42,269.549C721.785,274.566 721.647,274.559 722.729,277.45L722.942,278.4C723.062,279.106 723.181,279.812 723.301,280.518C723.374,281.179 723.447,281.84 723.52,282.501C723.509,285.501 723.497,288.501 723.486,291.501C722.959,295.123 723.084,295.095 723.032,295.405C722.956,296.95 722.942,296.862 723.074,298.342C720.516,305.894 720.945,305.96 720.549,306.518C717.906,310.242 713.463,329.783 683.545,335.738C682.529,335.971 681.514,336.204 680.499,336.437C673.937,336.351 674.049,336.319 667.493,336.359C665.458,335.807 662.868,335.675 662.463,335.654C647.948,333.319 638.178,324.118 636.482,322.522C635.499,321.501 634.691,320.639 634.536,320.474C625.911,309.907 623.546,301.888 623.299,289.529L623.282,286.468C624.664,276.286 623.593,276.025 627.776,266.627C627.964,266.206 637.396,253.253 637.718,252.882C637.938,252.629 638.67,253.174 640.338,251.346C643.383,248.009 649.352,245.801 652.613,243.67C653.58,243.307 654.548,242.943 655.516,242.58C656.786,241.943 656.681,241.987 656.786,241.943C657.252,241.747 657.223,242.124 657.695,241.925C660.194,241.363 660.114,241.306 662.499,240.475ZM691.609,265.405C691.804,266.563 691.822,266.501 692.721,267.286C693.702,268.993 693.589,269.224 695.522,269.475C695.591,269.552 696.132,269.657 696.46,270.527C697.663,273.71 698.596,273.153 699.647,276.467C698.904,278.582 699.242,278.692 700.862,280.269C700.922,280.422 701.291,280.579 701.356,281.528C701.864,289.007 702.07,289 701.7,290.554C701.165,292.029 701.112,291.981 701.506,293.5C701.284,298.448 700.878,298.357 698.268,305.382C698.24,305.457 694.601,311.158 692.65,311.721C692.626,311.728 679.699,325.437 658.577,314.343C652.279,311.035 647.859,302.543 647.617,301.47C644.862,289.227 641.895,283.277 652.697,267.636C654.888,264.463 661.392,261.532 661.472,261.456C664.977,258.106 681.259,259.488 684.375,260.808C689.06,262.794 691.13,264.914 691.609,265.405ZM699.647,276.467C700.761,279.831 700.782,279.801 700.862,280.269C699.242,278.692 698.904,278.582 699.647,276.467Z" style="fill:rgb(19,103,247);fill-opacity:0.99;"/>
            <path d="M951.503,240.544C952.502,240.528 953.501,240.512 954.5,240.497C965.782,242.609 973.179,241.839 986.81,255.193C1001.853,269.93 999.057,292.18 998.638,295.516C998.212,297.967 998.073,297.91 998.349,300.44C990.201,324.43 977.756,327.837 972.678,330.852C972.277,331.089 969.499,332.739 967.421,333.35C966.781,333.398 966.14,333.445 965.499,333.492C962.469,334.329 958.086,335.222 957.437,335.354C955.445,335.257 955.549,335.329 953.503,335.604C946.138,335.583 946.163,335.669 945.524,335.666C941.437,335.748 941.525,335.741 937.47,335.718C927.327,335.577 925.193,336.108 920.316,331.703C916.07,327.867 918.023,326.862 917.384,306.501C917.348,305.322 917.262,250.551 917.51,248.502C917.774,246.321 920.851,243.358 921.673,242.757C925.471,239.98 928.46,240.405 951.503,240.544ZM948.459,259.798L949.547,260.346C949.947,260.423 950.14,260.982 950.541,261.059C953.779,261.682 953.767,260.366 954.514,260.206C955.2,260.327 959.863,261.152 962.747,263.035C969.59,267.502 970.472,266.919 973.787,274.383C973.902,274.642 974.621,276.261 975.403,277.536C974.015,279.873 973.787,280.745 976.384,281.531C977.914,295.318 976.421,298.403 973.496,305.498C972.737,307.339 967.471,313.411 963.669,314.896C955.566,318.061 948.779,317.461 942.5,317.488C940.618,316.786 940.637,316.88 939.062,315.711C938.317,312.153 938.115,261.261 939.234,260.217C940.34,259.185 940.529,259.727 948.459,259.798ZM975.403,277.536C975.73,278.867 976.057,280.199 976.384,281.531C973.787,280.745 974.015,279.873 975.403,277.536Z" style="fill:rgb(19,104,248);fill-opacity:0.99;"/>
            <path d="M144.499,250.492C144.809,250.59 146.581,251.149 148.378,251.704C154.058,254.215 153.829,254.607 154.344,254.756C165.648,258.027 163.584,271.303 163.608,288.496C163.61,289.832 163.613,291.168 163.615,292.504C163.605,301.296 164.764,307.683 158.36,312.294C154.477,315.09 154.279,314.661 150.388,317.357C149.27,317.704 149.328,317.687 148.399,318.329C147.406,319.234 140.834,321.675 145.952,328.082C146.55,328.831 167.382,341.449 167.474,341.536C168.697,342.707 173.921,344.246 174.504,344.417C177.277,344.816 178.348,344.586 179.495,344.417C180.082,344.271 181.926,343.812 186.408,341.357C186.668,341.231 187.669,340.748 189.434,339.377C196.365,334.997 201.756,332.386 203.316,331.2C208.574,327.202 209.207,328.39 214.511,324.512C216.632,323.681 216.65,323.811 218.444,322.392C235.152,311.76 243.48,307.122 247.741,313.298C249.078,315.236 249.349,315.065 249.496,316.501C250.288,324.184 248.555,323.852 245.323,328.358C244.264,328.829 244.335,328.809 243.51,329.515C235.671,336.253 192.728,363.454 191.268,364.018C178.867,368.804 168.19,359.948 167.476,359.545C166.926,359.067 166.827,359.24 166.417,358.625C166.171,358.255 165.998,358.578 165.749,358.203C164.526,357.463 164.635,357.496 164.526,357.463C161.644,356.591 162.182,355.792 159.762,354.093C152.615,349.076 152.684,349.014 151.531,348.47C144.007,343.024 144.213,342.855 143.479,342.536C142.622,341.786 142.696,341.803 141.562,341.432C140.273,340.109 139.037,339.216 138.8,339.045C137.613,338.188 137.563,338.393 136.501,337.498C131.479,333.26 121.143,325.999 119.778,325.04C112.479,319.912 112.59,319.862 105.808,314.154C103.975,311.062 104.281,310.944 101.783,308.406C100.962,306.272 101.242,306.239 99.908,304.309C100.131,302.861 100.12,302.932 99.843,301.476C99.764,300.818 99.686,300.16 99.607,299.502C99.594,293.78 98.27,281.029 106.577,272.569C106.911,272.452 108.265,271.978 110.285,270.147C112.478,268.706 112.468,268.697 112.612,268.641C113.894,267.889 115.176,267.138 116.458,266.387C125.171,261.189 131.378,256.197 141.567,251.632C142.544,251.252 143.522,250.872 144.499,250.492ZM140.452,271.138C140.152,273.953 140.072,273.866 139.607,276.692C131.731,281.07 135.628,283.678 134.394,291.479C132.854,289.959 132.962,289.679 130.8,289.543C130.79,288.862 130.781,288.18 130.772,287.498C131.044,286.467 131.231,286.527 130.9,285.443C130.814,284.984 130.02,280.749 129.068,279.911C128.348,279.276 124.685,279.671 123.661,278.372C120.982,274.974 123.225,274.414 127.472,273.59C128.164,274.926 127.946,275.101 129.294,275.835C130.641,276.692 130.663,276.54 132.237,276.152C135.688,272.72 136.006,273.33 140.452,271.138ZM130.317,293.407C130.946,293.657 130.826,293.768 131.491,294.032C132.672,294.502 132.352,294.779 133.244,295.554C133.345,297.319 133.707,297.237 135.464,297.54C138.06,299.968 138.379,298.152 141.399,296.305C145.4,293.857 148.02,300.905 140.502,302.522C138.975,302.091 138.994,302.086 137.5,302.458C134.949,301.712 135.045,301.734 132.444,300.921C129.673,300.189 129.517,300.332 129.559,300.561C129.663,301.141 130.644,301.287 130.748,301.866C125.795,304.698 125.342,299.382 125.898,298.798C128.363,296.207 128.949,296.688 130.317,293.407ZM140.452,271.138C140.905,271.076 145.926,270.383 145.119,274.436C144.748,276.301 140.082,276.656 139.607,276.692C140.072,273.866 140.152,273.953 140.452,271.138ZM130.8,289.543C132.962,289.679 132.854,289.959 134.394,291.479C134.643,295.19 134.098,295.328 135.464,297.54C133.707,297.237 133.345,297.319 133.244,295.554C132.352,294.779 132.672,294.502 131.491,294.032C130.826,293.768 130.946,293.657 130.317,293.407C130.332,293.327 130.321,293.405 130.8,289.543ZM127.472,273.59C129.753,274.428 129.671,274.433 131.563,275.922C130.807,275.893 130.051,275.864 129.294,275.835C127.946,275.101 128.164,274.926 127.472,273.59Z" style="fill:rgb(18,103,248);fill-opacity:0.99;"/>
            <path d="M377.611,247.557C380.756,241.971 382.556,240.404 389.5,240.475C397.046,240.553 396.607,242.769 413.258,268.65C421.271,281.106 426.248,290.489 427.271,290.046C427.31,290.029 446.146,260.417 447.564,257.525C448.241,256.606 448.214,256.681 448.579,255.566C452.662,251.325 455.617,241.229 463.501,240.529C476.814,239.348 475.925,251.422 476.394,253.509C476.585,269.099 476.497,269.819 476.423,283.495C476.424,284.831 476.424,286.168 476.424,287.505C476.374,288.492 476.324,289.479 476.274,290.466C476.323,291.479 476.372,292.492 476.421,293.505C476.501,308.671 476.538,309.851 476.406,325.493C475.695,328.598 476.174,328.738 474.463,331.466C472.46,334.66 472.027,334.181 468.524,335.595C465.921,335.826 466.012,335.749 463.471,335.621C454.159,331.545 455.476,329.329 455.272,312.532C455.274,312.207 455.289,310.499 455.285,308.47C455.323,304.993 455.326,305.057 455.28,301.529C455.282,300.183 455.284,298.837 455.286,297.492L455.289,295.507L455.29,292.482L455.287,291.519C455.288,291.115 455.292,288.494 455.294,286.47C455.307,286.062 456.849,273.367 453.037,281.147C450.691,285.933 444.577,294.105 442.472,298.489C441.771,299.398 441.765,299.341 441.39,300.413C433.547,311.01 434.733,312.654 428.522,314.599C427.251,314.742 425.98,314.884 424.709,315.027C416.131,310.581 415.246,303.407 411.007,297.849C405.328,290.404 406.599,289.58 402.626,285.39C401.016,279.704 398.377,277.656 398.208,280.41C398.165,281.105 398.364,281.8 398.322,282.495C398.784,302.582 398.02,302.485 398.651,322.48L398.663,325.521C398.374,328.71 398.941,333.77 390.513,335.597C387.934,335.818 388.03,335.748 385.469,335.639C383.513,335.011 383.57,335.056 381.622,334.249C380.679,333.266 380.735,333.322 379.662,332.364C376.381,328.43 377.424,324.65 377.288,316.518C377.236,314.462 377.235,314.543 377.293,312.482L377.301,311.516C377.296,310.168 377.291,308.821 377.287,307.473C377.286,306.491 377.286,305.51 377.286,304.528C377.268,299.421 377.24,299.517 377.284,294.491L377.284,292.509C377.276,291.173 377.269,289.836 377.262,288.5C377.241,282.945 377.251,283.01 377.273,277.499C377.284,276.161 377.295,274.822 377.307,273.484L377.304,272.517C377.248,269.966 377.245,270.036 377.304,267.482L377.309,266.515C377.297,264.51 377.285,262.504 377.272,260.499C377.277,259.16 377.282,257.821 377.287,256.481L377.294,255.516C377.241,253.49 377.236,253.58 377.285,251.471C377.361,250.481 377.436,249.492 377.512,248.502L377.611,247.557Z" style="fill:rgb(18,103,248);fill-opacity:0.99;"/>
            <path d="M823.507,240.576C824.504,240.618 825.502,240.66 826.5,240.703C831.036,240.754 832.01,239.926 836.446,246.535C836.601,247.16 836.599,247.077 837.453,249.502C837.123,273.293 837.336,273.242 837.321,311.5C837.315,327.936 838.616,329.523 832.454,334.447C830.553,335.662 830.432,335.22 827.506,335.678C826.497,335.656 825.487,335.634 824.478,335.612C812.472,332.255 817.441,322.874 815.882,309.444C815.429,305.545 816.29,282.84 816.378,280.528C816.61,274.416 813.482,281.973 812.056,284.213C804.632,295.874 804.126,295.762 804.241,297.368C804.245,297.426 798.775,304.667 796.672,308.593C792.604,316.189 783.195,318.52 777.534,306.484C776.494,304.273 775.684,304.844 761.529,280.468C761.446,280.353 760.5,279.032 760.5,279.032C760.29,279.024 760.442,279.21 759.684,281.536C760.299,294.493 760.27,298.821 760.42,299.506C760.446,303.148 760.51,303.04 760.418,308.494C759.862,312.518 759.812,312.495 760.449,316.5L760.44,320.5C760.271,328.294 760.419,333.196 752.529,335.631C751.518,335.642 750.507,335.653 749.496,335.665L746.518,335.435C742.228,333.948 740.899,332.932 739.631,327.488C739.51,323.571 739.483,322.71 739.506,278.5L739.563,277.501C739.551,276.861 739.593,276.871 739.613,269.5C739.542,247.559 738.072,246.553 740.616,245.598C741.587,245.233 745.821,235.922 757.486,242.526C758.092,243.225 758.698,243.924 759.304,244.624C762.946,248.161 764.885,253.717 769.059,259.776C774.343,267.448 775.91,271.15 785.258,285.647C785.51,286.039 785.339,286.032 785.613,286.431C785.676,286.522 785.613,286.431 786.425,287.557C787.348,288.97 788.15,292.965 789.773,288.711C790.191,288.064 815.369,246.33 818.824,242.975C818.952,242.85 819.032,243.005 820.603,241.637C821.571,241.283 822.539,240.929 823.507,240.576Z" style="fill:rgb(19,104,248);fill-opacity:0.99;"/>
            <path d="M538.38,248.465C538.593,247.936 540.359,240.435 548.5,240.506C559.093,240.598 559.287,248.151 559.704,250.468C559.946,266.458 559.999,266.388 559.737,279.498C559.714,280.801 558.867,285.745 562.515,281.516C574.269,267.891 592.88,250.543 594.615,247.613C595.909,245.427 601.726,241.723 602.403,241.292C609.352,236.868 621.9,246.377 612.881,255.835C612.578,256.152 589.385,281.11 585.641,284.619C585.533,284.818 584.632,284.411 584.511,287.495C586.247,289.802 587.007,289.109 608.045,314.85C610.082,317.342 617.711,324.406 612.567,331.54C611.982,332.351 608.479,337.211 600.632,335.254C599.198,334.896 595.015,330.743 594.631,330.35C594.481,330.19 593.7,329.353 592.777,328.33C591.771,326.788 582.53,315.814 581.637,315.368C580.621,314.86 581.259,314.234 572.524,304.478C572.286,304.213 572.197,304.392 571.936,304.09C571.823,303.96 571.835,303.966 570.571,302.414C568.811,300.462 568.196,300.394 566.416,302.388C565.461,303.159 562.737,306.098 562.428,306.431C561.453,307.483 561.491,307.395 560.593,308.538C559.752,310.869 559.992,310.891 559.69,327.54C558.16,333.712 556.233,333.866 552.535,335.602C551.524,335.635 550.514,335.669 549.503,335.702C549.26,335.701 549.367,335.667 546.473,335.615C542.671,334.459 542.423,334.605 539.548,330.463C539.326,330.064 539.104,329.666 538.882,329.267L538.688,328.442C537.74,320.728 538.124,320.801 538.325,311.501L538.315,308.499C538.31,308.141 537.82,293.767 538.347,280.5L538.348,279.499C538.344,278.167 538.34,276.834 538.336,275.502L538.34,273.498C538.336,272.166 538.333,270.833 538.33,269.501C538.325,267.167 538.321,264.833 538.317,262.499C538.319,261.166 538.321,259.833 538.322,258.5L538.306,254.499C538.273,251.413 538.259,251.483 538.38,248.465Z" style="fill:rgb(19,104,248);fill-opacity:0.99;"/>
            <path d="M155.16,199.058C156.965,197.637 168.141,187.098 183.117,192.966C184.462,193.492 183.843,194.4 198.144,202.969C199.084,203.532 198.602,203.988 199.57,204.374C203.589,205.978 202.771,207.186 206.647,209.26C208.681,210.348 208.453,210.548 210.486,211.524C211.418,212.215 211.325,212.201 212.427,212.591C212.989,213.097 213.154,212.847 220.214,217.95C241.067,233.022 246.504,233.074 243.63,241.542C242.584,244.622 237.704,249.967 230.612,246.265C224.332,242.987 221.531,240.552 218.358,238.793C217.329,238.151 217.337,238.247 215.524,237.475C214.278,236.694 214.199,236.851 199.723,228.09C198.046,227.075 196.874,227.479 196.628,227.336C196.43,227.221 196.947,226.714 194.615,225.296C180.283,216.585 178.503,217.129 164.262,226.074C151.02,234.392 146.787,236.331 140.555,240.602C140.471,240.66 134.289,243.579 132.455,245.443C131.583,246.33 113.831,256.034 112.442,257.426C111.709,258.161 105.781,260.798 104.394,262.371C102.844,264.129 102.545,263.527 100.506,264.547C99.619,263.694 99.714,263.676 99.654,262.48C99.703,243.778 98.477,236.863 108.231,229.143C110.206,227.58 149.856,201.487 153.401,200.325C153.987,199.903 154.574,199.48 155.16,199.058Z" style="fill:rgb(18,103,248);fill-opacity:0.99;"/>
            <path d="M303.566,240.622C305.375,240.721 305.363,240.73 305.52,240.729C306.053,240.725 305.944,240.577 306.496,240.573C310.497,240.554 334.686,240.442 356.5,240.501C361.989,240.515 365.411,246.847 364.823,251.556C363.711,260.453 356.528,259.879 355.538,259.8C348.515,259.895 348.596,259.868 341.501,259.76L338.5,259.748C329.97,259.889 330.073,259.875 321.5,259.768C320.56,259.823 319.62,259.879 318.68,259.934C317.673,260.998 317.925,261.047 317.821,262.503C317.883,264.595 317.87,264.495 317.81,266.542C317.811,270.689 317.857,270.59 318.027,274.648C317.959,276.589 317.889,276.502 317.814,278.525C319.524,283.211 321.423,280.9 352.508,281.346C357.414,281.416 360.064,286.505 360.279,287.58C362.425,298.295 353.965,299.471 351.438,300.272C350.459,300.35 349.479,300.428 348.5,300.505C345.943,299.837 346.007,300.065 343.5,300.483L341.5,300.459C339.481,300.15 339.564,300.133 337.5,300.433C332.778,300.136 332.849,299.267 325.5,300.471C323.023,299.879 319.905,300.171 319.421,300.217L318.409,300.392C317.131,302.773 317.799,302.843 317.815,305.549C317.065,323.323 320.825,334.422 308.505,335.544L307.503,335.647C305.951,335.672 306.032,335.668 304.502,335.492C301.447,335.004 301.317,335.091 299.271,332.699C295.677,328.496 296.517,328.036 296.546,322.5C296.657,300.885 296.524,249.221 296.569,248.508C296.816,244.594 301.017,242.935 303.566,240.622Z" style="fill:rgb(18,103,248);fill-opacity:0.99;"/>
            <path d="M179.492,268.488C183.584,264.817 184.488,266.209 188.541,262.558C189.964,261.277 198.938,256.245 199.568,255.594C201.565,253.532 210.047,252.512 212.447,253.655C216.361,255.518 242.449,271.236 243.092,271.817C249.903,277.96 251.636,292.882 241.378,300.323C234.793,305.1 221.978,312.077 220.487,313.483C219.647,314.277 211.242,318.342 208.62,318.978C205.205,319.769 205.22,319.444 201.703,319.139C200.438,318.651 200.609,318.437 199.309,317.946C199.182,317.879 199.186,317.884 196.429,316.589C193.632,315.19 181.839,307.197 180.59,306.35C177.61,304.33 175.56,303.273 174.783,300.308C174.416,298.909 171.792,296.524 171.425,287.503C171.647,285.508 171.827,283.888 171.862,283.574C172.959,278.004 173.741,274.993 177.448,270.463C178.464,269.462 179.327,268.644 179.492,268.488ZM209.465,279.502C209.436,275.83 208.048,262.654 212.209,267.733C212.858,268.526 213.83,303.595 211.595,304.7C209.575,305.697 209.07,304.254 209.381,294.482C209.483,294.256 209.985,294.478 210.086,294.253C210.738,292.802 210.341,292.783 209.418,291.512L209.401,289.486C209.51,289.266 209.998,289.497 210.107,289.277C211.048,287.382 210.288,287.392 209.527,285.499L209.476,283.499C209.852,281.5 209.863,281.535 209.465,279.502ZM198.758,272.933C200.48,273.7 200.426,273.735 201.393,275.444C189.814,284.352 184.23,283.585 188.471,288.547C187.088,289.894 187.226,289.944 186.362,291.647C186.222,291.586 185.048,291.403 183.98,290.088C178.774,283.674 193.323,277.207 198.758,272.933ZM224.598,276.381C225.243,276.725 225.888,277.068 226.533,277.412C230.889,279.57 230.915,279.422 232.704,281.323C233.305,281.712 233.906,282.101 234.506,282.49C234.989,283.083 235.473,283.675 235.956,284.268C234.694,284.965 234.44,286.893 230.778,284.145C228.771,282.639 215.529,275.45 220.445,274.398C222.92,273.868 222.748,274.693 224.598,276.381ZM235.934,288.756C234.947,289.578 231.859,292.15 222.55,297.628C222.281,297.588 220.564,297.339 219.339,296.503C220.172,295.152 220.045,295.157 221.281,294.057C222.353,294.289 221.476,295.309 222.479,295.526C222.598,295.552 223.02,295.644 223.667,294.574C224.068,293.911 223.99,293.029 224.391,292.366C225.991,291.422 233.136,286.609 234.475,287.351C235.066,287.678 235.343,288.429 235.934,288.756ZM188.471,288.547C194.828,293.285 194.998,293.019 195.534,293.451C197.34,295.156 196.431,295.492 195.415,297.706C194.928,297.388 189.493,293.842 189.398,293.615C188.659,291.844 187.964,292.713 186.362,291.647C187.226,289.944 187.088,289.894 188.471,288.547ZM195.534,293.451C198.664,294.469 202.262,297.252 202.519,298.495C202.676,299.253 201.977,303.284 195.415,297.706C196.431,295.492 197.34,295.156 195.534,293.451ZM224.391,292.366C223.99,293.029 224.068,293.911 223.667,294.574C223.02,295.644 222.598,295.552 222.479,295.526C221.476,295.309 222.353,294.289 221.281,294.057C222.782,292.965 222.761,293.139 224.391,292.366ZM209.527,285.499C210.288,287.392 211.048,287.382 210.107,289.277C209.998,289.497 209.51,289.266 209.401,289.486C208.916,287.479 208.92,287.495 209.527,285.499ZM209.418,291.512C210.341,292.783 210.738,292.802 210.086,294.253C209.985,294.478 209.483,294.256 209.381,294.482C209.042,292.964 209.153,293.007 209.418,291.512ZM209.465,279.502C209.863,281.535 209.852,281.5 209.476,283.499C209.192,280.853 209.324,280.889 209.465,279.502Z" style="fill:rgb(17,101,245);fill-opacity:0.98;"/>
            <path d="M508.502,240.597C509.138,240.616 509.775,240.635 510.411,240.654C512.241,241.317 516.52,245.77 517.001,247.716C517.264,248.783 517.569,248.787 517.47,302.501C517.212,304.536 517.21,304.451 517.477,306.499C517.492,325.371 519.43,333.101 508.527,335.643C506.411,335.704 506.512,335.693 504.478,335.634C499.352,334.179 499.375,333.373 495.885,328.238C495.782,327.346 496.139,327.408 496.038,326.543C496.019,326.376 496.002,326.392 495.542,324.5L495.523,318.499C495.731,316.969 495.939,315.841 495.571,312.5C496.56,306.396 495.637,298.691 495.495,297.5C495.496,295.167 495.497,292.833 495.499,290.5C495.883,287.755 496.255,273.554 495.551,267.5C495.841,264.842 495.635,260.838 495.678,260.485C496.494,253.656 495.613,253.682 495.883,247.755C499.767,240.812 500.461,240.587 508.502,240.597Z" style="fill:rgb(18,101,245);fill-opacity:0.98;"/>
            <path d="M902.457,251.504C902.492,263.024 902.495,262.934 902.458,274.497C901.957,277.045 901.554,277.68 902.453,281.503C902.456,284.835 902.458,288.166 902.461,291.497C902.456,292.833 902.452,294.168 902.447,295.504C902.478,302.032 902.499,301.936 902.457,308.497C900.62,324.984 905.683,333.527 893.526,335.671C891.433,335.681 891.534,335.674 889.483,335.571C880.034,332.47 881.279,329.557 881.318,296.499C881.376,247.695 880.67,247.03 884.231,243.222C886.287,241.024 886.32,240.608 891.5,240.508C901.622,240.313 901.636,248.217 902.457,251.504Z" style="fill:rgb(19,103,246);fill-opacity:0.99;"/>
            <path d="M495.551,267.5C496.255,273.554 495.883,287.755 495.499,290.5C494.261,286.453 494.744,286.42 494.433,277.5C494.408,276.783 493.248,272.609 495.551,267.5Z" style="fill:rgb(23,86,193);fill-opacity:0.11;"/>
            <path d="M495.883,247.755C495.613,253.682 496.494,253.656 495.678,260.485C495.635,260.838 495.841,264.842 495.551,267.5C494.037,263.796 494.427,256.884 494.272,254.533C494.238,254.005 493.939,249.444 494.925,247.952C495.105,247.68 495.703,248.027 495.883,247.755Z" style="fill:rgb(23,86,189);fill-opacity:0.11;"/>
            <path d="M559.704,250.468L560.37,251.544C560.811,254.342 560.652,254.327 560.606,277.499C560.316,278.165 560.027,278.831 559.737,279.498C559.999,266.388 559.946,266.458 559.704,250.468Z" style="fill:rgb(16,68,168);fill-opacity:0.28;"/>
            <path d="M319.421,300.217C319.905,300.171 323.023,299.879 325.5,300.471C329.5,300.458 333.5,300.446 337.5,300.433L341.5,300.459L343.5,300.483L348.5,300.505C349.479,300.428 350.459,300.35 351.438,300.272C349.911,300.682 350.06,301.055 348.501,301.06C348.021,301.062 348.042,301.062 342.502,301.055C322.978,301.032 322.775,302.169 319.421,300.217Z" style="fill:rgb(14,51,116);fill-opacity:0.16;"/>
            <path d="M538.347,280.5C537.82,293.767 538.31,308.141 538.315,308.499C538.032,307.832 537.749,307.165 537.465,306.498C537.46,304.579 537.43,294.5 537.466,282.502C537.76,281.835 538.053,281.167 538.347,280.5Z" style="fill:rgb(15,65,160);fill-opacity:0.31;"/>
            <path d="M495.495,297.5C495.637,298.691 496.56,306.396 495.571,312.5C492.908,308.285 494.549,300.148 495.495,297.5Z" style="fill:rgb(22,84,189);fill-opacity:0.12;"/>
            <path d="M476.421,293.505C476.607,294.105 477.038,293.962 477.037,295.5C477.037,297.82 477.034,324.433 477.028,324.495C476.994,324.885 476.441,325.102 476.406,325.493C476.538,309.851 476.501,308.671 476.421,293.505Z" style="fill:rgb(12,48,110);fill-opacity:0.23;"/>
            <path d="M537.683,270.471C537.719,272.073 537.784,272.011 538.34,273.498L538.336,275.502C537.578,277.485 537.572,277.5 538.348,279.499L538.347,280.5C538.053,281.167 537.76,281.835 537.466,282.502L536.939,283.492C536.553,280.96 535.836,281.023 536.628,278.552C537.162,276.884 536.437,276.191 536.261,275.599C536.166,275.281 535.915,274.444 536.9,271.5L537.683,270.471Z" style="fill:rgb(25,83,181);fill-opacity:0.05;"/>
            <path d="M536.947,305.507L537.465,306.498C537.749,307.165 538.032,307.832 538.315,308.499L538.325,311.501C536.178,316.621 537.545,326.177 537.725,327.44C537.679,327.027 536.997,326.876 536.952,326.463C536.801,325.112 537.677,325.185 536.678,309.471C536.548,307.437 536.679,307.499 536.947,305.507Z" style="fill:rgb(16,58,130);fill-opacity:0.11;"/>
            <path d="M476.394,253.509C476.599,254.159 477.019,254 477.023,255.5C477.028,257.659 477.087,281.834 477.03,282.495C476.996,282.883 476.457,283.106 476.423,283.495C476.497,269.819 476.585,269.099 476.394,253.509Z" style="fill:rgb(12,48,111);fill-opacity:0.23;"/>
            <path d="M537.705,249.568C537.329,252.181 537.314,252.147 538.306,254.499L538.322,258.5C537.785,259.976 537.676,259.91 537.731,261.535L536.908,260.498C534.998,254.85 537.686,249.638 537.705,249.568Z" style="fill:rgb(25,80,172);fill-opacity:0.07;"/>
            <path d="M560.593,308.538L560.649,310.505C560.639,322.978 560.817,323.336 560.337,326.447L559.69,327.54C559.992,310.891 559.752,310.869 560.593,308.538Z" style="fill:rgb(17,71,172);fill-opacity:0.26;"/>
            <path d="M720.42,269.549C723.04,270.434 723.102,270.361 723.299,270.647C723.741,271.29 722.843,273.03 723.025,273.755C723.183,274.387 724.22,274.45 722.729,277.45C721.647,274.559 721.785,274.566 720.42,269.549Z" style="fill:rgb(21,75,166);fill-opacity:0.07;"/>
            <path d="M398.322,282.495C398.364,281.8 398.165,281.105 398.208,280.41C398.377,277.656 401.016,279.704 402.626,285.39C402.304,285.127 402.174,285.334 398.322,282.495Z" style="fill:rgb(12,51,121);fill-opacity:0.13;"/>
            <path d="M321.5,259.768C330.073,259.875 329.97,259.889 338.5,259.748C337.832,260.034 337.164,260.32 336.496,260.607C329.972,260.606 330.033,260.629 323.504,260.593C322.836,260.318 322.168,260.043 321.5,259.768Z" style="fill:rgb(19,70,166);fill-opacity:0.31;"/>
            <path d="M902.457,251.504C904.231,264.12 902.493,274.062 902.458,274.497C902.495,262.934 902.492,263.024 902.457,251.504Z" style="fill:rgb(13,49,111);fill-opacity:0.22;"/>
            <path d="M537.466,282.502C537.43,294.5 537.46,304.579 537.465,306.498L536.947,305.507C536.944,298.169 536.942,290.831 536.939,283.492L537.466,282.502Z" style="fill:rgb(11,44,104);fill-opacity:0.14;"/>
            <path d="M538.325,311.501C538.124,320.801 537.74,320.728 538.688,328.442L537.725,327.44C537.545,326.177 536.178,316.621 538.325,311.501Z" style="fill:rgb(15,66,160);fill-opacity:0.32;"/>
            <path d="M560.37,251.544C561.983,255.917 560.738,275.427 560.606,277.499C560.652,254.327 560.811,254.342 560.37,251.544Z" style="fill:rgb(11,46,109);fill-opacity:0.13;"/>
            <path d="M101.783,308.406C104.281,310.944 103.975,311.062 105.808,314.154C103.336,313.283 103.375,313.307 101.514,311.487C101.337,311.314 101.066,311.049 101.783,308.406Z" style="fill:rgb(26,84,183);fill-opacity:0.11;"/>
            <path d="M341.501,259.76C348.596,259.868 348.515,259.895 355.538,259.8L354.459,260.36C352.652,260.594 352.703,260.613 343.507,260.627C342.838,260.338 342.17,260.049 341.501,259.76Z" style="fill:rgb(20,70,164);fill-opacity:0.32;"/>
            <path d="M377.273,277.499C377.251,283.01 377.241,282.945 377.262,288.5L376.718,287.455C375.827,282.995 375.877,282.997 376.701,278.541L377.273,277.499Z" style="fill:rgb(16,72,177);fill-opacity:0.29;"/>
            <path d="M338.5,259.748C340.018,260.166 339.978,260.163 341.501,259.76C342.17,260.049 342.838,260.338 343.507,260.627L344.493,261.083C341.398,261.462 338.59,261.461 335.505,261.077L336.496,260.607C337.164,260.32 337.832,260.034 338.5,259.748Z" style="fill:rgb(25,77,162);fill-opacity:0.06;"/>
            <path d="M832.454,334.447C831.744,338.572 830.584,337.658 830.447,337.77C828.084,336.018 828.141,335.998 827.506,335.678C830.432,335.22 830.553,335.662 832.454,334.447Z" style="fill:rgb(27,86,185);fill-opacity:0.17;"/>
            <path d="M377.284,294.491C377.24,299.517 377.268,299.421 377.286,304.528L376.693,303.439C375.999,299.453 375.992,299.507 376.736,295.552L377.284,294.491Z" style="fill:rgb(15,69,173);fill-opacity:0.3;"/>
            <path d="M662.463,335.654C662.868,335.675 665.458,335.807 667.493,336.359C667.269,336.514 665.181,337.965 664.473,337.928C663.385,337.872 663.16,336.565 662.463,335.654Z" style="fill:rgb(25,94,202);fill-opacity:0.1;"/>
            <path d="M318.68,259.934C320.172,260.178 320.084,260.147 321.5,259.768C322.168,260.043 322.836,260.318 323.504,260.593L324.493,261.073C322.51,261.32 322.566,261.43 320.522,261.292C317.804,261.108 317.99,262.375 317.821,262.503C317.925,261.047 317.673,260.998 318.68,259.934Z" style="fill:rgb(23,77,169);fill-opacity:0.1;"/>
            <path d="M560.649,310.505C560.911,311.716 562.058,321.916 560.337,326.447C560.817,323.336 560.639,322.978 560.649,310.505Z" style="fill:rgb(12,48,111);fill-opacity:0.13;"/>
            <path d="M902.447,295.504C903.149,301.527 903.516,301.431 903.02,307.497C902.989,307.878 902.489,308.116 902.457,308.497C902.499,301.936 902.478,302.032 902.447,295.504Z" style="fill:rgb(14,52,116);fill-opacity:0.21;"/>
            <path d="M723.486,291.501C724.884,294.478 725.28,294.742 723.414,297.466C723.287,296.779 723.159,296.092 723.032,295.405C723.084,295.095 722.959,295.123 723.486,291.501Z" style="fill:rgb(21,84,191);fill-opacity:0.13;"/>
            <path d="M824.478,335.612C825.487,335.634 826.497,335.656 827.506,335.678C828.141,335.998 828.084,336.018 830.447,337.77C826.915,336.675 826.257,337.924 824.478,335.612Z" style="fill:rgb(23,73,159);fill-opacity:0.12;"/>
            <path d="M746.518,335.435L749.496,335.665C750.134,335.854 750.772,336.043 751.411,336.233C748.85,337.669 748.345,337.741 746.518,335.435Z" style="fill:rgb(21,72,158);fill-opacity:0.14;"/>
            <path d="M323.504,260.593C330.033,260.629 329.972,260.606 336.496,260.607L335.505,261.077C331.834,261.076 328.164,261.074 324.493,261.073L323.504,260.593Z" style="fill:rgb(15,50,113);fill-opacity:0.13;"/>
            <path d="M189.434,339.377C187.669,340.748 186.668,341.231 186.408,341.357C186.343,341.134 187.045,341.183 186.98,340.96C186.814,340.391 186.136,340.096 185.883,339.559C185.119,337.94 189.164,339.287 189.434,339.377Z" style="fill:rgb(21,79,179);fill-opacity:0.08;"/>
            <path d="M786.425,287.557C788.344,287.946 788.335,287.929 788.498,287.977C789.251,288.199 789.055,288.5 789.773,288.711C788.15,292.965 787.348,288.97 786.425,287.557Z" style="fill:rgb(7,31,73);fill-opacity:0.09;"/>
            <path d="M208.62,318.978C208.562,319.027 208.302,319.624 207.4,320.006C206.361,320.446 202.165,320.158 201.962,320.034C201.697,319.872 201.968,319.301 201.703,319.139C205.22,319.444 205.205,319.769 208.62,318.978Z" style="fill:rgb(18,75,168);fill-opacity:0.16;"/>
            <path d="M937.47,335.718C941.525,335.741 941.437,335.748 945.524,335.666L944.428,336.282C941.462,336.632 941.555,336.633 938.562,336.299L937.47,335.718Z" style="fill:rgb(17,70,166);fill-opacity:0.32;"/>
            <path d="M325.5,300.471C332.849,299.267 332.778,300.136 337.5,300.433C333.5,300.446 329.5,300.458 325.5,300.471Z" style="fill:rgb(14,58,143);fill-opacity:0.37;"/>
            <path d="M495.571,312.5C495.939,315.841 495.731,316.969 495.523,318.499C494.216,315.548 494.235,315.396 495.571,312.5Z" style="fill:rgb(19,77,175);fill-opacity:0.15;"/>
            <path d="M307.503,335.647L308.505,335.544C308.59,335.707 309.94,338.316 308.492,337.838C307.286,337.439 307.417,337.337 305.608,336.076C306.239,335.933 306.871,335.79 307.503,335.647Z" style="fill:rgb(28,87,182);fill-opacity:0.05;"/>
            <path d="M975.403,277.536C975.73,278.867 976.057,280.199 976.384,281.531C973.787,280.745 974.015,279.873 975.403,277.536Z" style="fill:rgb(16,77,185);fill-opacity:0.09;"/>
            <path d="M99.654,262.48C99.714,263.676 99.619,263.694 100.506,264.547C99.444,265.042 99.34,266.414 98.914,265.288C98.683,264.678 99.176,263.928 98.911,263.332C98.701,262.857 98.033,262.772 97.645,262.427C91.013,256.54 99.525,262.383 99.654,262.48Z" style="fill:rgb(15,55,128);fill-opacity:0.1;"/>
            <path d="M566.416,302.388C568.196,300.394 568.811,300.462 570.571,302.414C570.239,302.429 568.5,302.506 566.416,302.388Z" style="fill:rgb(23,85,186);fill-opacity:0.09;"/>
            <path d="M224.391,292.366C223.99,293.029 224.068,293.911 223.667,294.574C223.02,295.644 222.598,295.552 222.479,295.526C221.476,295.309 222.353,294.289 221.281,294.057C222.782,292.965 222.761,293.139 224.391,292.366Z" style="fill:rgb(17,68,152);fill-opacity:0.13;"/>
            <path d="M902.453,281.503C902.746,283.565 903.02,283.475 903.021,285.501C903.024,288.535 902.745,288.458 902.461,291.497C902.458,288.166 902.456,284.835 902.453,281.503Z" style="fill:rgb(14,53,120);fill-opacity:0.21;"/>
            <path d="M546.473,335.615C549.367,335.667 549.26,335.701 549.503,335.702C550.143,335.889 550.783,336.077 551.423,336.264C548.897,337.577 548.61,337.486 546.473,335.615Z" style="fill:rgb(22,79,176);fill-opacity:0.17;"/>
            <path d="M343.507,260.627C352.703,260.613 352.652,260.594 354.459,260.36C352.456,260.715 352.557,261.05 350.501,261.062C347.497,261.081 347.575,261.065 344.493,261.083L343.507,260.627Z" style="fill:rgb(16,51,113);fill-opacity:0.14;"/>
            <path d="M155.16,199.058C154.574,199.48 153.987,199.903 153.401,200.325C148.837,195.44 155.025,198.948 155.16,199.058Z" style="fill:rgb(20,68,145);fill-opacity:0.04;"/>
            <path d="M116.458,266.387C115.176,267.138 113.894,267.889 112.612,268.641C113.4,267.336 112.888,266.05 116.458,266.387Z" style="fill:rgb(26,95,211);fill-opacity:0.14;"/>
            <path d="M760.42,299.506C760.562,301.179 762.233,302.384 760.418,308.494C760.51,303.04 760.446,303.148 760.42,299.506Z" style="fill:rgb(15,54,122);fill-opacity:0.22;"/>
            <path d="M127.472,273.59C129.753,274.428 129.671,274.433 131.563,275.922C130.807,275.893 130.051,275.864 129.294,275.835C127.946,275.101 128.164,274.926 127.472,273.59Z" style="fill:rgb(23,92,209);fill-opacity:0.15;"/>
            <path d="M198.758,272.933C201.256,271.911 201.956,272.778 201.393,275.444C200.426,273.735 200.48,273.7 198.758,272.933Z" style="fill:rgb(20,83,189);fill-opacity:0.13;"/>
            <path d="M998.638,295.516C1000.36,299.499 998.994,299.444 998.349,300.44C998.073,297.91 998.212,297.967 998.638,295.516Z" style="fill:rgb(18,71,169);fill-opacity:0.16;"/>
            <path d="M757.486,242.526C759.864,242.683 761.195,241.958 760.431,243.516C760.199,243.989 759.536,244.151 759.304,244.624C758.698,243.924 758.092,243.225 757.486,242.526Z" style="fill:rgb(31,97,215);fill-opacity:0.13;"/>
            <path d="M110.285,270.147C108.265,271.978 106.911,272.452 106.577,272.569C106.789,272.342 106.515,271.875 106.728,271.647C106.915,271.447 107.391,271.764 107.542,271.535C107.734,271.245 107.279,270.767 107.492,270.491C107.991,269.845 110.061,270.117 110.285,270.147Z" style="fill:rgb(23,84,186);fill-opacity:0.18;"/>
            <path d="M692.61,266.377C694.103,267.931 694.256,267.714 695.522,269.475C693.589,269.224 693.702,268.993 692.721,267.286L692.61,266.377Z" style="fill:rgb(24,86,189);fill-opacity:0.12;"/>
            <path d="M143.537,250.647C146.29,249.462 146.901,249.09 148.378,251.704C146.581,251.149 144.809,250.59 144.499,250.492L143.537,250.647Z" style="fill:rgb(21,80,179);fill-opacity:0.22;"/>
            <path d="M174.504,344.417C177,343.624 177.005,343.623 179.495,344.417C178.348,344.586 177.277,344.816 174.504,344.417Z" style="fill:rgb(16,75,177);fill-opacity:0.17;"/>
            <path d="M376.701,278.541C375.877,282.997 375.827,282.995 376.718,287.455C374.272,281.621 376.537,279.957 376.701,278.541Z" style="fill:rgb(13,52,119);fill-opacity:0.12;"/>
            <path d="M377.272,260.499C377.285,262.504 377.297,264.51 377.309,266.515L376.722,265.433C376.351,263.458 376.359,263.503 376.709,261.544L377.272,260.499Z" style="fill:rgb(14,67,171);fill-opacity:0.33;"/>
            <path d="M953.503,335.604C955.549,335.329 955.445,335.257 957.437,335.354C956.044,337.182 955.685,336.293 953.503,335.604Z" style="fill:rgb(25,88,192);fill-opacity:0.15;"/>
            <path d="M209.527,285.499C210.288,287.392 211.048,287.382 210.107,289.277C209.998,289.497 209.51,289.266 209.401,289.486C208.916,287.479 208.92,287.495 209.527,285.499Z" style="fill:rgb(22,89,206);fill-opacity:0.13;"/>
            <path d="M538.38,248.465C538.259,251.483 538.273,251.413 538.306,254.499C537.314,252.147 537.329,252.181 537.705,249.568L538.38,248.465Z" style="fill:rgb(16,68,165);fill-opacity:0.35;"/>
            <path d="M376.736,295.552C375.992,299.507 375.999,299.453 376.693,303.439C376.396,301.2 374.343,301.163 376.736,295.552Z" style="fill:rgb(13,51,119);fill-opacity:0.12;"/>
            <path d="M455.294,286.47C455.292,288.494 455.288,291.115 455.287,291.519C454.104,289.034 454.116,288.938 455.294,286.47Z" style="fill:rgb(16,74,184);fill-opacity:0.29;"/>
            <path d="M215.524,237.475C217.337,238.247 217.329,238.151 218.358,238.793C218.148,238.828 215.732,239.23 215.732,239.23C215.613,239.154 215.717,239.1 215.524,237.475Z" style="fill:rgb(28,95,210);fill-opacity:0.11;"/>
            <path d="M219.339,296.503C220.564,297.339 222.281,297.588 222.55,297.628C220.47,298.537 219.751,298.746 219.339,296.503Z" style="fill:rgb(29,105,225);fill-opacity:0.12;"/>
            <path d="M692.497,242.519C694.63,241.935 694.711,242.259 696.231,243.889C694.313,243.328 694.359,243.439 692.497,242.519Z" style="fill:rgb(20,79,182);fill-opacity:0.2;"/>
            <path d="M699.647,276.467C700.761,279.831 700.782,279.801 700.862,280.269C699.242,278.692 698.904,278.582 699.647,276.467Z" style="fill:rgb(28,97,215);fill-opacity:0.17;"/>
            <path d="M681.503,240.55C683.469,239.523 683.593,239.567 685.425,240.705C683.459,240.768 681.815,240.585 681.503,240.55Z" style="fill:rgb(20,73,174);fill-opacity:0.19;"/>
            <path d="M662.499,240.475C660.114,241.306 660.194,241.363 657.695,241.925C658.347,241.576 658.056,241.164 660.538,240.61C660.538,240.61 662.342,240.486 662.499,240.475Z" style="fill:rgb(25,77,171);fill-opacity:0.25;"/>
            <path d="M495.542,324.5C496.002,326.392 496.019,326.376 496.038,326.543C496.139,327.408 495.782,327.346 495.885,328.238C495.042,327.45 494.749,327.632 494.765,326.55C494.767,326.375 494.822,326.398 495.542,324.5Z" style="fill:rgb(25,85,186);fill-opacity:0.14;"/>
            <path d="M209.418,291.512C210.341,292.783 210.738,292.802 210.086,294.253C209.985,294.478 209.483,294.256 209.381,294.482C209.042,292.964 209.153,293.007 209.418,291.512Z" style="fill:rgb(24,96,221);fill-opacity:0.15;"/>
            <path d="M318.409,300.392C318.541,302.451 318.609,302.37 318.399,304.469L317.815,305.549C317.799,302.843 317.131,302.773 318.409,300.392Z" style="fill:rgb(16,70,170);fill-opacity:0.33;"/>
            <path d="M761.529,280.468C761.027,280.678 761.093,280.678 759.684,281.536C760.442,279.21 760.29,279.024 760.5,279.032C760.5,279.032 761.446,280.353 761.529,280.468Z" style="fill:rgb(21,86,198);fill-opacity:0.25;"/>
            <path d="M377.304,267.482C377.245,270.036 377.248,269.966 377.304,272.517L376.709,271.436C376.496,269.919 376.51,269.999 376.684,268.556L377.304,267.482Z" style="fill:rgb(12,64,167);fill-opacity:0.35;"/>
            <path d="M165.749,358.203C165.998,358.578 166.171,358.255 166.417,358.625C166.827,359.24 166.926,359.067 167.476,359.545C167.165,359.635 166.929,359.91 166.618,360C166.463,360.045 164.607,360.581 164.725,359.331C164.772,358.825 165.701,358.708 165.749,358.203Z" style="fill:rgb(26,91,198);fill-opacity:0.08;"/>
            <path d="M318.409,300.392L319.421,300.217C319.106,302.415 319.122,302.343 318.399,304.469C318.609,302.37 318.541,302.451 318.409,300.392Z" style="fill:rgb(18,69,147);fill-opacity:0.09;"/>
            <path d="M517.47,302.501C518.226,304.499 518.214,304.534 517.477,306.499C517.21,304.451 517.212,304.536 517.47,302.501Z" style="fill:rgb(19,73,170);fill-opacity:0.18;"/>
            <path d="M938.562,336.299C941.555,336.633 941.462,336.632 944.428,336.282C942.039,337.291 942.084,337.574 939.539,337.057C939.135,336.975 938.966,336.381 938.562,336.299Z" style="fill:rgb(15,55,121);fill-opacity:0.12;"/>
            <path d="M99.607,299.502C99.686,300.16 99.764,300.818 99.843,301.476C99.764,302.136 99.685,302.796 99.606,303.455C98.769,301.509 98.792,301.448 99.607,299.502Z" style="fill:rgb(25,77,167);fill-opacity:0.15;"/>
            <path d="M948.459,259.798C951.064,259.893 950.972,259.945 953.521,260.327C951.492,260.606 951.534,260.61 949.547,260.346L948.459,259.798Z" style="fill:rgb(19,69,162);fill-opacity:0.33;"/>
            <path d="M939.062,315.711C940.637,316.88 940.618,316.786 942.5,317.488C940.246,317.376 939.742,317.796 939.062,315.711Z" style="fill:rgb(18,67,145);fill-opacity:0.13;"/>
            <path d="M949.547,260.346C951.534,260.61 951.492,260.606 953.521,260.327L954.514,260.206C953.767,260.366 953.779,261.682 950.541,261.059C950.14,260.982 949.947,260.423 949.547,260.346Z" style="fill:rgb(18,59,133);fill-opacity:0.16;"/>
            <path d="M209.465,279.502C209.863,281.535 209.852,281.5 209.476,283.499C209.192,280.853 209.324,280.889 209.465,279.502Z" style="fill:rgb(20,80,187);fill-opacity:0.2;"/>
            <path d="M428.522,314.599C426.693,315.456 426.704,315.606 424.709,315.027C425.98,314.884 427.251,314.742 428.522,314.599Z" style="fill:rgb(18,78,186);fill-opacity:0.29;"/>
            <path d="M723.359,278.553C724.217,280.463 724.24,280.473 723.52,282.501C723.447,281.84 723.374,281.179 723.301,280.518C723.32,279.863 723.339,279.208 723.359,278.553Z" style="fill:rgb(20,75,169);fill-opacity:0.19;"/>
            <path d="M385.469,335.639C388.03,335.748 387.934,335.818 390.513,335.597L389.409,336.12C387.972,336.362 388.065,336.392 386.586,336.238L385.469,335.639Z" style="fill:rgb(17,67,159);fill-opacity:0.4;"/>
            <path d="M196.429,316.589C199.186,317.884 199.182,317.879 199.309,317.946C198.48,317.757 197.597,318.359 196.769,318.17C196.643,318.141 196.745,318.057 196.429,316.589Z" style="fill:rgb(15,70,175);fill-opacity:0.2;"/>
            <path d="M455.285,308.47C455.289,310.499 455.274,312.207 455.272,312.532C454.451,310.512 454.465,310.453 455.285,308.47Z" style="fill:rgb(14,72,182);fill-opacity:0.31;"/>
            <path d="M343.5,300.483C346.007,300.065 345.943,299.837 348.5,300.505L343.5,300.483Z" style="fill:rgb(18,68,157);fill-opacity:0.31;"/>
            <path d="M455.286,297.492C455.284,298.837 455.282,300.183 455.28,301.529C454.47,299.562 454.446,299.498 455.286,297.492Z" style="fill:rgb(13,71,182);fill-opacity:0.32;"/>
            <path d="M504.478,335.634C506.512,335.693 506.411,335.704 508.527,335.643C506.607,336.946 506.369,336.935 504.478,335.634Z" style="fill:rgb(18,69,165);fill-opacity:0.37;"/>
            <path d="M463.471,335.621C466.012,335.749 465.921,335.826 468.524,335.595L467.391,336.178C465.954,336.335 466.032,336.332 464.597,336.199L463.471,335.621Z" style="fill:rgb(16,67,161);fill-opacity:0.41;"/>
            <path d="M171.862,283.574C171.827,283.888 171.647,285.508 171.425,287.503C170.834,285.471 170.868,285.448 171.862,283.574Z" style="fill:rgb(18,72,168);fill-opacity:0.27;"/>
            <path d="M889.483,335.571C891.534,335.674 891.433,335.681 893.526,335.671C891.575,336.973 891.336,336.904 889.483,335.571Z" style="fill:rgb(19,70,168);fill-opacity:0.38;"/>
            <path d="M585.641,284.619C585.264,285.578 584.888,286.537 584.511,287.495C584.632,284.411 585.533,284.818 585.641,284.619Z" style="fill:rgb(29,102,222);fill-opacity:0.1;"/>
            <path d="M129.294,275.835C130.051,275.864 130.807,275.893 131.563,275.922L132.237,276.152C130.663,276.54 130.641,276.692 129.294,275.835Z" style="fill:rgb(20,82,192);fill-opacity:0.16;"/>
            <path d="M132.444,300.921C131.879,301.236 131.313,301.551 130.748,301.866C130.644,301.287 129.663,301.141 129.559,300.561C129.517,300.332 129.673,300.189 132.444,300.921Z" style="fill:rgb(18,68,156);fill-opacity:0.18;"/>
            <path d="M592.777,328.33C593.7,329.353 594.481,330.19 594.631,330.35C594.15,330.075 594.142,330.663 593.629,330.369C593.629,330.369 592.845,328.493 592.777,328.33Z" style="fill:rgb(21,74,170);fill-opacity:0.19;"/>
            <path d="M163.608,288.496C164.194,290.494 164.205,290.467 163.615,292.504C163.613,291.168 163.61,289.832 163.608,288.496Z" style="fill:rgb(23,81,178);fill-opacity:0.21;"/>
            <path d="M538.33,269.501C538.333,270.833 538.336,272.166 538.34,273.498C537.784,272.011 537.719,272.073 537.683,270.471L538.33,269.501Z" style="fill:rgb(15,69,173);fill-opacity:0.38;"/>
            <path d="M538.336,275.502C538.34,276.834 538.344,278.167 538.348,279.499C537.572,277.5 537.578,277.485 538.336,275.502Z" style="fill:rgb(16,70,174);fill-opacity:0.38;"/>
            <path d="M538.322,258.5C538.321,259.833 538.319,261.166 538.317,262.499L537.731,261.535C537.676,259.91 537.785,259.976 538.322,258.5Z" style="fill:rgb(16,70,171);fill-opacity:0.39;"/>
            <path d="M760.449,316.5C760.828,318.554 760.812,318.506 760.44,320.5L760.449,316.5Z" style="fill:rgb(19,64,140);fill-opacity:0.19;"/>
            <path d="M377.285,251.471C377.236,253.58 377.241,253.49 377.294,255.516C376.561,253.465 376.582,253.475 377.285,251.471Z" style="fill:rgb(13,64,169);fill-opacity:0.37;"/>
            <path d="M377.262,288.5C377.269,289.836 377.276,291.173 377.284,292.509C376.525,290.481 376.542,290.474 377.262,288.5Z" style="fill:rgb(13,66,172);fill-opacity:0.37;"/>
            <path d="M377.287,256.481C377.282,257.821 377.277,259.16 377.272,260.499C376.564,258.488 376.569,258.498 377.287,256.481Z" style="fill:rgb(13,64,171);fill-opacity:0.38;"/>
            <path d="M377.293,312.482C377.235,314.543 377.236,314.462 377.288,316.518C376.599,314.52 376.579,314.536 377.293,312.482Z" style="fill:rgb(13,64,168);fill-opacity:0.38;"/>
            <path d="M377.307,273.484C377.295,274.822 377.284,276.161 377.273,277.499C376.593,275.485 376.599,275.497 377.307,273.484Z" style="fill:rgb(13,65,171);fill-opacity:0.38;"/>
            <path d="M379.662,332.364C380.735,333.322 380.679,333.266 381.622,334.249C381.114,333.955 381.128,334.586 380.659,334.314C380.659,334.314 379.742,332.52 379.662,332.364Z" style="fill:rgb(21,68,153);fill-opacity:0.25;"/>
            <path d="M317.821,262.503C318.526,264.505 318.523,264.506 317.81,266.542C317.87,264.495 317.883,264.595 317.821,262.503Z" style="fill:rgb(13,66,167);fill-opacity:0.38;"/>
            <path d="M377.287,307.473C377.291,308.821 377.296,310.168 377.301,311.516C376.642,309.481 376.647,309.503 377.287,307.473Z" style="fill:rgb(13,62,168);fill-opacity:0.39;"/>
            <path d="M179.492,268.488C179.327,268.644 178.464,269.462 177.448,270.463C178.129,269.804 178.811,269.146 179.492,268.488Z" style="fill:rgb(17,74,179);fill-opacity:0.31;"/>
            <path d="M655.516,242.58C654.548,242.943 653.58,243.307 652.613,243.67C653.751,242.451 653.882,242.814 655.516,242.58Z" style="fill:rgb(19,77,178);fill-opacity:0.25;"/>
            <path d="M318.027,274.648C318.513,276.608 318.459,276.581 317.814,278.525C317.889,276.502 317.959,276.589 318.027,274.648Z" style="fill:rgb(13,64,164);fill-opacity:0.39;"/>
            <path d="M376.709,261.544C376.359,263.503 376.351,263.458 376.722,265.433C375.9,263.491 375.915,263.465 376.709,261.544Z" style="fill:rgb(15,58,134);fill-opacity:0.13;"/>
            <path d="M303.566,240.622C305.071,240.119 305.035,240.041 306.496,240.573C305.944,240.577 306.053,240.725 305.52,240.729C305.363,240.73 305.375,240.721 303.566,240.622Z" style="fill:rgb(24,82,184);fill-opacity:0.2;"/>
            <path d="M337.5,300.433C339.564,300.133 339.481,300.15 341.5,300.459L337.5,300.433Z" style="fill:rgb(18,68,159);fill-opacity:0.31;"/>
            <path d="M691.609,265.405C691.943,265.729 692.276,266.053 692.61,266.377L692.721,267.286C691.822,266.501 691.804,266.563 691.609,265.405Z" style="fill:rgb(29,102,224);fill-opacity:0.11;"/>
            <path d="M634.536,320.474C634.691,320.639 635.499,321.501 636.482,322.522C634.945,322.156 634.857,322.069 634.536,320.474Z" style="fill:rgb(16,73,176);fill-opacity:0.33;"/>
            <path d="M823.507,240.576C822.539,240.929 821.571,241.283 820.603,241.637C821.832,240.517 821.893,240.772 823.507,240.576Z" style="fill:rgb(20,72,167);fill-opacity:0.29;"/>
            <path d="M836.446,246.535C837.542,247.812 837.353,247.851 837.453,249.502C836.599,247.077 836.601,247.16 836.446,246.535Z" style="fill:rgb(16,71,167);fill-opacity:0.3;"/>
            <path d="M951.503,240.544C952.986,240.071 952.952,240.104 954.5,240.497C953.501,240.512 952.502,240.528 951.503,240.544Z" style="fill:rgb(22,75,175);fill-opacity:0.23;"/>
            <path d="M99.843,301.476C100.12,302.932 100.131,302.861 99.908,304.309L99.606,303.455C99.685,302.796 99.764,302.136 99.843,301.476Z" style="fill:rgb(23,80,185);fill-opacity:0.29;"/>
            <path d="M464.597,336.199C466.032,336.332 465.954,336.335 467.391,336.178C466.026,336.804 465.991,336.82 464.597,336.199Z" style="fill:rgb(18,63,141);fill-opacity:0.16;"/>
            <path d="M749.496,335.665C750.507,335.653 751.518,335.642 752.529,335.631L751.411,336.233C750.772,336.043 750.134,335.854 749.496,335.665Z" style="fill:rgb(16,65,160);fill-opacity:0.41;"/>
            <path d="M386.586,336.238C388.065,336.392 387.972,336.362 389.409,336.12C387.673,336.988 387.692,337.122 387.538,337.055C386.907,336.779 387.161,336.489 386.586,336.238Z" style="fill:rgb(20,64,139);fill-opacity:0.15;"/>
            <path d="M549.503,335.702C550.514,335.669 551.524,335.635 552.535,335.602L551.423,336.264C550.783,336.077 550.143,335.889 549.503,335.702Z" style="fill:rgb(15,65,164);fill-opacity:0.39;"/>
            <path d="M723.032,295.405C723.159,296.092 723.287,296.779 723.414,297.466L723.074,298.342C722.942,296.862 722.956,296.95 723.032,295.405Z" style="fill:rgb(17,72,174);fill-opacity:0.36;"/>
            <path d="M508.502,240.597C510.137,239.924 510.14,239.782 510.263,239.872C510.476,240.029 510.198,240.497 510.411,240.654C509.775,240.635 509.138,240.616 508.502,240.597Z" style="fill:rgb(28,90,205);fill-opacity:0.18;"/>
            <path d="M476.424,287.505C476.871,289.011 476.851,288.974 476.274,290.466C476.324,289.479 476.374,288.492 476.424,287.505Z" style="fill:rgb(19,71,153);fill-opacity:0.2;"/>
            <path d="M623.282,286.468L623.299,289.529C622.836,287.964 622.856,287.982 623.282,286.468Z" style="fill:rgb(21,79,191);fill-opacity:0.34;"/>
            <path d="M965.499,333.492C966.14,333.445 966.781,333.398 967.421,333.35C967.212,333.509 967.477,333.965 967.267,334.123C967.267,334.123 965.641,333.543 965.499,333.492Z" style="fill:rgb(31,98,209);fill-opacity:0.14;"/>
            <path d="M141.562,341.432C142.696,341.803 142.622,341.786 143.479,342.536C142.318,342.284 142.386,342.215 141.562,341.432Z" style="fill:rgb(22,83,188);fill-opacity:0.22;"/>
            <path d="M137.5,302.458C138.994,302.086 138.975,302.091 140.502,302.522C139.502,302.501 138.501,302.479 137.5,302.458Z" style="fill:rgb(21,78,184);fill-opacity:0.25;"/>
            <path d="M338.5,259.748L341.501,259.76C339.978,260.163 340.018,260.166 338.5,259.748Z" style="fill:rgb(20,73,179);fill-opacity:0.4;"/>
            <path d="M304.502,335.492C306.032,335.668 305.951,335.672 307.503,335.647C306.871,335.79 306.239,335.933 305.608,336.076L304.502,335.492Z" style="fill:rgb(18,70,166);fill-opacity:0.44;"/>
            <path d="M150.388,317.357C149.725,317.681 149.062,318.005 148.399,318.329C149.328,317.687 149.27,317.704 150.388,317.357Z" style="fill:rgb(19,78,188);fill-opacity:0.26;"/>
            <path d="M701.7,290.554C701.636,291.536 701.571,292.518 701.506,293.5C701.112,291.981 701.165,292.029 701.7,290.554Z" style="fill:rgb(21,67,149);fill-opacity:0.16;"/>
            <path d="M448.579,255.566C448.214,256.681 448.241,256.606 447.564,257.525C447.903,256.872 448.241,256.219 448.579,255.566Z" style="fill:rgb(19,76,178);fill-opacity:0.28;"/>
            <path d="M442.472,298.489C442.112,299.13 441.751,299.771 441.39,300.413C441.765,299.341 441.771,299.398 442.472,298.489Z" style="fill:rgb(16,70,175);fill-opacity:0.27;"/>
            <path d="M705.507,249.489C706.112,249.874 706.716,250.26 707.321,250.645C706.286,250.226 706.344,250.234 705.507,249.489Z" style="fill:rgb(17,76,184);fill-opacity:0.26;"/>
            <path d="M224.598,276.381C225.708,276.729 225.643,276.744 226.533,277.412C225.888,277.068 225.243,276.725 224.598,276.381Z" style="fill:rgb(19,81,192);fill-opacity:0.26;"/>
            <path d="M376.684,268.556C376.51,269.999 376.496,269.919 376.709,271.436C376.131,270.017 376.126,269.986 376.684,268.556Z" style="fill:rgb(16,64,144);fill-opacity:0.13;"/>
            <path d="M318.68,259.934C319.62,259.879 320.56,259.823 321.5,259.768C320.084,260.147 320.172,260.178 318.68,259.934Z" style="fill:rgb(20,76,182);fill-opacity:0.37;"/>
            <path d="M210.486,211.524C211.133,211.88 211.78,212.236 212.427,212.591C211.325,212.201 211.418,212.215 210.486,211.524Z" style="fill:rgb(19,75,176);fill-opacity:0.28;"/>
            <path d="M697.485,244.539C698.127,244.898 698.77,245.258 699.412,245.618C698.77,245.258 698.127,244.898 697.485,244.539Z" style="fill:rgb(15,69,168);fill-opacity:0.3;"/>
            <path d="M232.704,281.323C233.757,281.769 233.648,281.759 234.506,282.49C233.906,282.101 233.305,281.712 232.704,281.323Z" style="fill:rgb(17,76,182);fill-opacity:0.31;"/>
            <path d="M245.323,328.358C244.92,328.735 245.243,329.108 243.51,329.515C244.335,328.809 244.264,328.829 245.323,328.358Z" style="fill:rgb(18,74,178);fill-opacity:0.3;"/>
            <path d="M455.29,292.482L455.289,295.507C454.911,294 454.936,294.076 455.29,292.482Z" style="fill:rgb(14,73,187);fill-opacity:0.39;"/>
            <path d="M398.651,322.48C399.012,324.064 399.001,323.987 398.663,325.521L398.651,322.48Z" style="fill:rgb(16,73,183);fill-opacity:0.41;"/>
            <path d="M683.545,335.738C682.033,336.253 682.147,336.299 680.499,336.437C681.514,336.204 682.529,335.971 683.545,335.738Z" style="fill:rgb(15,70,165);fill-opacity:0.35;"/>
            <path d="M722.942,278.4L723.359,278.553C723.339,279.208 723.32,279.863 723.301,280.518C723.181,279.812 723.062,279.106 722.942,278.4Z" style="fill:rgb(21,75,170);fill-opacity:0.31;"/>
            <path d="M143.537,250.647L144.499,250.492C143.522,250.872 142.544,251.252 141.567,251.632C142.224,251.303 142.88,250.975 143.537,250.647Z" style="fill:rgb(15,63,153);fill-opacity:0.39;"/>
            <path d="M130.9,285.443C131.231,286.527 131.044,286.467 130.772,287.498L130.9,285.443Z" style="fill:rgb(19,80,188);fill-opacity:0.36;"/>
        </g>
    </g>
</svg>
