<?xml version="1.0" encoding="UTF-8"?>
<svg version="1.1" xmlns="http://www.w3.org/2000/svg" width="615" height="615">
<path d="M0 0 C7.82490823 3.78624592 14.34415093 9.61015363 21 15.125 C26.21606414 19.41929123 31.59932081 23.45810063 37.02246094 27.48608398 C41.01390542 30.46161941 44.91739825 33.50737265 48.75 36.6875 C49.5659816 37.34865311 50.3819632 38.00980621 51.22267151 38.69099426 C52.92532525 40.09993093 54.59203174 41.55478961 56.19981384 43.0710907 C64.75865574 50.4582843 72.72339057 50.01772557 83.44140625 49.83203125 C85.21451721 49.83193248 86.98763238 49.83579948 88.76072693 49.84342957 C93.39480392 49.85480166 98.02737043 49.82138123 102.66119385 49.7755127 C110.10783245 49.70858885 117.55462955 49.70642412 125.00150871 49.71219444 C127.5999627 49.70708813 130.19751813 49.68019978 132.79579163 49.65034485 C134.37761214 49.64370971 135.95943494 49.63759265 137.54125977 49.63208008 C138.62664032 49.61107491 138.62664032 49.61107491 139.73394775 49.58964539 C141.73390198 49.59260559 141.73390198 49.59260559 144.9375 49.9375 C147.01615049 53.05547573 147.56399255 55.06216407 148.33984375 58.6875 C148.58871338 59.84354736 148.83758301 60.99959473 149.09399414 62.19067383 C149.35172607 63.42712646 149.60945801 64.6635791 149.875 65.9375 C150.27803345 67.8414856 150.27803345 67.8414856 150.68920898 69.78393555 C152.29325921 77.48035287 153.68816831 85.16888968 154.81958008 92.94702148 C155.80310423 99.52285099 157.1485046 106.00425469 158.5625 112.5 C158.89036499 114.01074097 158.89036499 114.01074097 159.22485352 115.55200195 C160.19516577 120.37622697 160.19516577 120.37622697 161.9375 124.9375 C163.75572749 125.98188987 165.61845439 126.94953389 167.5 127.875 C168.51191406 128.37902344 169.52382813 128.88304687 170.56640625 129.40234375 C173.00143057 130.51122505 175.35757506 131.48253513 177.86328125 132.390625 C181.93259892 133.88207679 185.72011741 135.75549184 189.5625 137.75 C194.66319568 140.35279715 199.77704883 142.78582451 205.0625 145 C213.81056656 148.6675743 223.09821338 152.56482436 230.9375 157.9375 C232.15079679 161.57739038 231.68076412 163.59673834 231.046875 167.37109375 C230.72396484 169.3056543 230.72396484 169.3056543 230.39453125 171.27929688 C230.27803223 171.953396 230.1615332 172.62749512 230.04150391 173.32202148 C229.69439413 175.33501881 229.35990587 177.34978898 229.02734375 179.36523438 C227.83518985 186.40312535 226.40281963 193.28661086 224.60253906 200.19213867 C223.58734012 204.38300213 223.00226774 208.60405128 222.4375 212.875 C221.46588006 219.8580246 220.21995201 226.59111015 218.390625 233.40625 C217.45122852 238.6539131 220.07611891 242.16657603 222.6875 246.5625 C226.00401502 252.2540582 229.06216083 258.00886907 231.9375 263.9375 C235.1527314 270.46988657 238.4470216 276.95205966 241.875 283.375 C242.37531738 284.31678101 242.37531738 284.31678101 242.88574219 285.27758789 C244.55911112 288.4141461 246.26399566 291.52520571 248.0390625 294.60546875 C248.68617188 295.74628906 249.33328125 296.88710938 250 298.0625 C250.58910156 299.07570313 251.17820312 300.08890625 251.78515625 301.1328125 C253.14370966 304.43939334 253.27425899 305.63737623 251.9375 308.9375 C249.71484375 311.5859375 249.71484375 311.5859375 246.875 314.3125 C246.37258789 314.79944336 245.87017578 315.28638672 245.35253906 315.78808594 C242.70049661 318.33845264 239.98753313 320.80159981 237.1875 323.1875 C229.42502921 329.80415909 222.44477056 337.37048653 215.28515625 344.625 C212.94021191 346.9348287 210.52715009 349.13132405 208.0625 351.3125 C207.20011719 352.09496094 206.33773438 352.87742187 205.44921875 353.68359375 C203.91559538 355.0598001 202.36022948 356.41283806 200.76953125 357.72265625 C196.36519931 361.56396019 195.46804625 364.13350112 195.05007935 369.85687256 C194.81938842 376.16951174 194.93918531 382.47572911 195.05859375 388.7890625 C195.08294758 390.29933888 195.10678832 391.8096236 195.13014221 393.31991577 C195.19246037 397.26216269 195.26167001 401.20425849 195.33239746 405.1463623 C195.40355832 409.1821413 195.46808777 413.21802599 195.53320312 417.25390625 C195.66153989 425.14855468 195.79716944 433.04305569 195.9375 440.9375 C191.28277875 442.54025089 186.71366293 443.63121691 181.8671875 444.453125 C180.69356407 444.65773849 180.69356407 444.65773849 179.49623108 444.8664856 C176.93577147 445.31149716 174.37419602 445.74966676 171.8125 446.1875 C170.03063331 446.49533338 168.24881421 446.8034423 166.46704102 447.11181641 C154.27609964 449.21624048 142.07736486 451.2754315 129.875 453.3125 C129.11419128 453.43951294 128.35338257 453.56652588 127.56951904 453.6973877 C125.40982396 454.05726834 123.24989721 454.41571472 121.08984375 454.7734375 C119.87288818 454.97501465 118.65593262 455.1765918 117.40209961 455.38427734 C114.99022427 455.76940239 112.56934289 456.10039681 110.14404297 456.38916016 C102.85016229 457.63646151 98.46224143 466.32466093 94.25 471.9375 C92.81670075 473.83485792 91.38310776 475.73199398 89.94921875 477.62890625 C89.25876465 478.54430176 88.56831055 479.45969727 87.85693359 480.40283203 C85.45079549 483.58020748 83.00896852 486.72867983 80.5625 489.875 C75.50275494 496.43201656 70.70732031 503.16841458 65.9375 509.9375 C60.32156745 509.3795067 55.92941719 507.26428233 50.9375 504.8125 C50.10025391 504.40870117 49.26300781 504.00490234 48.40039062 503.58886719 C42.25054992 500.61260738 36.14389841 497.55159955 30.04296875 494.4765625 C26.44292528 492.69239001 22.80258362 491.02839767 19.12890625 489.40234375 C16.48431541 488.18848626 13.88159683 486.92558022 11.27734375 485.62890625 C10.44033936 485.21753418 9.60333496 484.80616211 8.7409668 484.38232422 C7.071599 483.56032937 5.40740228 482.72772584 3.74926758 481.88330078 C-1.03964138 479.5426292 -4.61415993 478.26794496 -10.0625 478.9375 C-12.72139743 479.79800467 -12.72139743 479.79800467 -15.1875 481.125 C-19.23942176 483.09275954 -23.28453787 484.84723584 -27.5 486.4375 C-31.72157891 488.03242946 -35.90413058 489.68430077 -40.0625 491.4375 C-44.22086942 493.19069923 -48.40342109 494.84257054 -52.625 496.4375 C-59.30307634 498.9819113 -65.86270147 501.78064144 -72.22265625 505.046875 C-74.86938106 506.3280921 -76.15097507 506.5613982 -79.0625 505.9375 C-81.32531227 503.67468773 -83.13400185 501.47628237 -85.0625 498.9375 C-86.34103902 497.32420155 -87.61965512 495.71096372 -88.89941406 494.09863281 C-93.37702929 488.43895193 -97.76743017 482.71417806 -102.14697266 476.97851562 C-106.11073331 471.81800117 -110.23691445 466.79370173 -114.36865234 461.76733398 C-118.2505908 457.01753886 -121.85187791 452.16371869 -125.28125 447.07421875 C-128.24384156 443.52040826 -131.00568063 442.11814409 -135.57324219 441.33740234 C-136.91752448 441.21950971 -138.2630851 441.11561694 -139.609375 441.0234375 C-140.70357758 440.93348007 -140.70357758 440.93348007 -141.81988525 440.84170532 C-144.14998601 440.65328187 -146.48101242 440.48280165 -148.8125 440.3125 C-150.33212243 440.19124146 -151.85165527 440.06885471 -153.37109375 439.9453125 C-161.62682667 439.28610359 -169.88661979 438.75998282 -178.1552124 438.29330444 C-183.80603219 437.96823515 -189.43219919 437.51312181 -195.0625 436.9375 C-195.93132812 436.855 -196.80015625 436.7725 -197.6953125 436.6875 C-203.93880662 436.06119338 -203.93880662 436.06119338 -205.0625 434.9375 C-205.28495144 432.23042822 -205.44413934 429.54437738 -205.5625 426.83203125 C-205.6026976 425.98091766 -205.6428952 425.12980408 -205.68431091 424.25289917 C-205.81573154 421.41881653 -205.93922721 418.58444787 -206.0625 415.75 C-206.12886154 414.29879257 -206.12886154 414.29879257 -206.19656372 412.81826782 C-206.72587783 401.22156351 -207.12496717 389.6309923 -207.30859375 378.0234375 C-207.32604645 376.97921127 -207.34349915 375.93498505 -207.36148071 374.8591156 C-207.4434758 369.79966282 -207.50748302 364.74088532 -207.54492188 359.6809082 C-207.56988665 357.83283925 -207.59525635 355.98477571 -207.62109375 354.13671875 C-207.621129 353.30623016 -207.62116425 352.47574158 -207.62120056 351.62008667 C-207.72430849 345.62729154 -208.63853977 340.80228277 -212.63720703 336.07641602 C-213.19263184 335.61936279 -213.74805664 335.16230957 -214.3203125 334.69140625 C-214.94139893 334.16828857 -215.56248535 333.6451709 -216.20239258 333.10620117 C-216.85747803 332.57615479 -217.51256348 332.0461084 -218.1875 331.5 C-219.54856798 330.36244671 -220.90924678 329.2244276 -222.26953125 328.0859375 C-222.92518066 327.54420898 -223.58083008 327.00248047 -224.25634766 326.44433594 C-226.51448098 324.56042152 -228.69844279 322.60226742 -230.875 320.625 C-233.93596903 317.88227917 -237.08747135 315.29781999 -240.3125 312.75 C-243.80314988 309.98746114 -246.95113593 307.12664818 -250.0625 303.9375 C-255.27699749 299.12886865 -260.56599652 294.42148968 -266.0625 289.9375 C-265.46557246 286.9064346 -264.55485097 284.95019082 -262.6875 282.5 C-261.20448582 280.50428663 -259.8442942 278.57382366 -258.5625 276.4375 C-257.32799296 274.37998827 -256.03811719 272.49533507 -254.625 270.5625 C-252.58247439 267.7418694 -250.8361776 264.83587332 -249.13671875 261.79296875 C-245.1169639 254.84975583 -240.28215148 248.3865992 -235.57763672 241.89819336 C-233.23887164 238.65683548 -231.08336351 235.38393389 -229.0625 231.9375 C-228.3960144 231.06544922 -228.3960144 231.06544922 -227.71606445 230.17578125 C-225.02847107 226.48074049 -223.6253699 224.04397996 -224.34375 219.421875 C-224.71710726 217.83564616 -225.12479876 216.25719271 -225.5625 214.6875 C-225.76738037 213.85049561 -225.97226074 213.01349121 -226.18334961 212.15112305 C-226.77979598 209.73762297 -227.41557825 207.33787876 -228.0625 204.9375 C-228.58580603 202.875626 -229.10706961 200.81323089 -229.625 198.75 C-229.86347656 197.82960937 -230.10195312 196.90921875 -230.34765625 195.9609375 C-231.37852785 191.60085761 -232.14506874 187.19626546 -232.93774414 182.78833008 C-233.64355179 178.94202323 -234.47796076 175.19384685 -235.5625 171.4375 C-237.59234754 164.38085724 -238.77728752 157.15779481 -240.0625 149.9375 C-240.45778842 147.77073385 -240.8535432 145.60405267 -241.25 143.4375 C-241.52130801 141.93758578 -241.79235067 140.43762334 -242.0625 138.9375 C-235.88855962 136.0828824 -229.67975014 134.44567341 -223.08984375 132.83203125 C-218.1660531 131.59120439 -213.73392495 129.95985308 -209.0625 127.9375 C-206.10751057 127.01092969 -203.12065429 126.22117327 -200.125 125.4375 C-195.72174508 124.27973153 -191.38959934 123.11402211 -187.14453125 121.45703125 C-184.12512419 120.28312953 -181.10915175 119.3695634 -177.9765625 118.54296875 C-177.10902344 118.30900391 -176.24148437 118.07503906 -175.34765625 117.83398438 C-173.55517332 117.35625214 -171.7580532 116.89563008 -169.95703125 116.45117188 C-167.51367007 115.7753096 -165.31545667 115.10060474 -163.0625 113.9375 C-161.34071693 111.18884236 -161.34071693 111.18884236 -161.0625 107.9375 C-160.876875 106.91011719 -160.69125 105.88273437 -160.5 104.82421875 C-160.355625 103.76847656 -160.21125 102.71273437 -160.0625 101.625 C-159.55600828 97.94841278 -158.95231717 94.34243945 -158.125 90.7265625 C-156.90958917 85.39169671 -155.98265012 80.01744546 -155.0625 74.625 C-154.88662354 73.60970215 -154.71074707 72.5944043 -154.52954102 71.54833984 C-153.50024085 65.58671742 -152.50932673 59.6220643 -151.65234375 53.6328125 C-151.0961589 51.09130559 -150.3575034 48.73175169 -149.52563477 46.26904297 C-149.11596214 45.05255569 -149.11596214 45.05255569 -148.69801331 43.81149292 C-148.48829391 43.19307526 -148.27857452 42.57465759 -148.0625 41.9375 C-146.4696946 41.94749275 -146.4696946 41.94749275 -144.8447113 41.95768738 C-134.82523017 42.01856921 -124.80578669 42.06350662 -114.78616238 42.09293652 C-109.63527641 42.10857549 -104.48454009 42.12978156 -99.33374023 42.16381836 C-94.36057634 42.19647473 -89.38755615 42.21436632 -84.41429329 42.22213173 C-82.51932578 42.22766396 -80.6243659 42.23846707 -78.72945976 42.25469017 C-76.07003817 42.27654789 -73.41120631 42.27946344 -70.75170898 42.27807617 C-69.58321411 42.29425491 -69.58321411 42.29425491 -68.39111328 42.3107605 C-60.54660759 42.2666403 -55.32741785 39.4454026 -49.125 34.625 C-47.56072266 33.42230469 -47.56072266 33.42230469 -45.96484375 32.1953125 C-45.00707031 31.45023438 -44.04929687 30.70515625 -43.0625 29.9375 C-38.23505033 26.25508109 -33.32815107 22.69872183 -28.375 19.1875 C-22.46212353 14.99489256 -16.70632218 10.63304441 -11 6.1640625 C-2.75752096 -0.08356124 -2.75752096 -0.08356124 0 0 Z " fill="#2B96E9" transform="translate(318.0625,41.0625)"/>
<path d="M0 0 C4.07547718 0.52106557 5.86650427 2.58466672 8.625 5.5 C11.50277024 8.66693163 11.50277024 8.66693163 15 11 C15 11.66 15 12.32 15 13 C15.55429687 13.2371875 16.10859375 13.474375 16.6796875 13.71875 C19.55148267 15.30452242 21.71145652 17.28098092 24.125 19.5 C25.42824219 20.69109375 25.42824219 20.69109375 26.7578125 21.90625 C28.19408422 23.24743753 29.61045683 24.61045683 31 26 C30.81609937 30.1469593 27.85989382 32.85233333 25.25 35.8125 C24.7648291 36.37437012 24.2796582 36.93624023 23.77978516 37.51513672 C22.19333096 39.34945864 20.59716885 41.17500391 19 43 C17.34374814 44.90316789 15.68920886 46.8078112 14.03515625 48.71289062 C12.92662126 49.9896621 11.81724311 51.265702 10.70703125 52.54101562 C6.74575391 57.10262974 2.91367921 61.75647232 -0.88671875 66.453125 C-3.04634957 69.05585937 -5.28434841 71.56313096 -7.5625 74.0625 C-12.49846519 79.48086318 -17.01592813 85.19795919 -21.5390625 90.9609375 C-22.64902687 92.3435247 -23.81776533 93.6786789 -25 95 C-25.66 95 -26.32 95 -27 95 C-27.24363281 95.72574219 -27.48726562 96.45148438 -27.73828125 97.19921875 C-29.15514759 100.34439883 -30.83115811 102.30204281 -33.1875 104.8125 C-33.99832031 105.6890625 -34.80914062 106.565625 -35.64453125 107.46875 C-36.42183594 108.3040625 -37.19914063 109.139375 -38 110 C-42.63294131 115.17738896 -47.11596902 120.48265352 -51.59448242 125.79345703 C-54.59156557 129.34514061 -57.61055981 132.87676335 -60.64453125 136.39697266 C-64.57287006 140.95558608 -68.4599448 145.52399251 -72.1875 150.25 C-75.58940481 154.56097332 -79.20661451 158.63309673 -82.921875 162.67578125 C-85.08081961 164.99760557 -85.08081961 164.99760557 -86.953125 167.79296875 C-89 170 -89 170 -91.34375 170.6484375 C-95.23452689 169.6986302 -97.63843727 167.27947067 -100.5 164.625 C-101.72906826 163.52301996 -102.96090674 162.42412282 -104.1953125 161.328125 C-104.82083008 160.77189453 -105.44634766 160.21566406 -106.09082031 159.64257812 C-109.61002304 156.61480371 -113.3407927 153.86122386 -117.08789062 151.12353516 C-118.42606028 150.12660713 -119.71841733 149.06869518 -121 148 C-121 147.34 -121 146.68 -121 146 C-121.70511719 145.76925781 -122.41023438 145.53851563 -123.13671875 145.30078125 C-126.53097461 143.75877961 -129.05230357 141.63401816 -131.8125 139.1875 C-132.96093417 138.1925017 -134.11073702 137.19908151 -135.26171875 136.20703125 C-135.86677246 135.68447754 -136.47182617 135.16192383 -137.09521484 134.62353516 C-140.3903322 131.81495653 -143.7579037 129.09649965 -147.125 126.375 C-147.80425537 125.82521484 -148.48351074 125.27542969 -149.18334961 124.70898438 C-150.50942521 123.63568542 -151.83567294 122.56259909 -153.16210938 121.48974609 C-155.74139046 119.39904827 -158.30837999 117.29372348 -160.875 115.1875 C-165.8835891 111.08334505 -170.93401515 107.03300746 -176 103 C-175.49398271 98.4621675 -173.82729687 96.17266282 -170.875 92.75 C-169.65683594 91.31140625 -169.65683594 91.31140625 -168.4140625 89.84375 C-167.61742187 88.9053125 -166.82078125 87.966875 -166 87 C-161.82599536 81.7866187 -157.8373297 76.46528776 -154 71 C-149.09946422 71.48143093 -146.45946764 72.76360381 -142.625 75.8125 C-141.57077475 76.63600876 -140.51606125 77.45889275 -139.4609375 78.28125 C-138.62320801 78.94253906 -138.62320801 78.94253906 -137.76855469 79.6171875 C-134.63480138 82.06743305 -131.43830536 84.43397223 -128.25 86.8125 C-124.04519645 89.95862396 -119.84708543 93.11277665 -115.66796875 96.29296875 C-114.95930664 96.83010498 -114.25064453 97.36724121 -113.52050781 97.9206543 C-112.17487393 98.94091983 -110.83159838 99.9643067 -109.49121094 100.99145508 C-105.48319649 104.02362789 -101.41294938 106.59190407 -97 109 C-88.25086316 99.59337973 -88.25086316 99.59337973 -79.73046875 89.98046875 C-76.81242904 86.64086122 -73.81098948 83.37610035 -70.8203125 80.1015625 C-68.96323333 78.13276579 -68.96323333 78.13276579 -68 76 C-67.34 76 -66.68 76 -66 76 C-65.77441406 75.45472656 -65.54882812 74.90945313 -65.31640625 74.34765625 C-63.60859886 71.30198194 -61.32959113 68.94662661 -58.9375 66.4375 C-54.42085164 61.61740564 -50.17817516 56.65043751 -46.0703125 51.47265625 C-44 49 -44 49 -41.3046875 46.30859375 C-38.97984145 44.22253654 -38.97984145 44.22253654 -38 42 C-37.34 42 -36.68 42 -36 42 C-36 41.34 -36 40.68 -36 40 C-35.34 40 -34.68 40 -34 40 C-33.77054688 39.45085937 -33.54109375 38.90171875 -33.3046875 38.3359375 C-31.62433974 35.32741068 -29.49272275 33.12998204 -27.125 30.625 C-22.92588262 26.13464674 -18.85514489 21.56053564 -14.875 16.875 C-10.0136981 11.15804593 -5.05865282 5.5440791 0 0 Z " fill="#FBFDFD" transform="translate(377,231)"/>
<path d="M0 0 C0.33 0.66 0.66 1.32 1 2 C2.98 2 4.96 2 7 2 C7 2.66 7 3.32 7 4 C6.34 4 5.68 4 5 4 C4.855625 4.804375 4.71125 5.60875 4.5625 6.4375 C4 9 4 9 3 10 C2.63557767 11.66014616 2.30027117 13.32706064 2 15 C1.01 15.33 0.02 15.66 -1 16 C-1 14.68 -1 13.36 -1 12 C-1.66 12 -2.32 12 -3 12 C-3 12.66 -3 13.32 -3 14 C-3.66 14 -4.32 14 -5 14 C-5 15.32 -5 16.64 -5 18 C-6.32 17.67 -7.64 17.34 -9 17 C-8.33871094 16.26394531 -7.67742187 15.52789062 -6.99609375 14.76953125 C-5.72958984 13.30580078 -5.72958984 13.30580078 -4.4375 11.8125 C-3.59058594 10.84957031 -2.74367188 9.88664062 -1.87109375 8.89453125 C0.3129072 6.17743623 0.3129072 6.17743623 -0.28515625 3.19921875 C-0.52105469 2.47347656 -0.75695312 1.74773437 -1 1 C-0.67 0.67 -0.34 0.34 0 0 Z " fill="#2F94E8" transform="translate(407,254)"/>
<path d="M0 0 C0.66 0 1.32 0 2 0 C2 0.66 2 1.32 2 2 C2.66 2 3.32 2 4 2 C4 2.66 4 3.32 4 4 C4.66 4 5.32 4 6 4 C6 4.66 6 5.32 6 6 C7.32 6 8.64 6 10 6 C10 6.66 10 7.32 10 8 C10.66 8 11.32 8 12 8 C12 8.66 12 9.32 12 10 C12.66 10 13.32 10 14 10 C14 10.66 14 11.32 14 12 C15.65 11.34 17.3 10.68 19 10 C19.33 11.32 19.66 12.64 20 14 C19.34 14 18.68 14 18 14 C18 14.66 18 15.32 18 16 C18.66 16 19.32 16 20 16 C20 16.66 20 17.32 20 18 C20.66 18 21.32 18 22 18 C22 18.66 22 19.32 22 20 C22.66 20 23.32 20 24 20 C23.67 20.66 23.34 21.32 23 22 C17.73609626 17.88086756 12.67038513 13.79329 8 9 C5.87279744 7.16523772 3.7319441 5.34955044 1.57421875 3.55078125 C1.05472656 3.03902344 0.53523438 2.52726562 0 2 C0 1.34 0 0.68 0 0 Z " fill="#3796DB" transform="translate(60,336)"/>
<path d="M0 0 C0.66 0.66 1.32 1.32 2 2 C1.34 2 0.68 2 0 2 C0 3.32 0 4.64 0 6 C-0.66 6 -1.32 6 -2 6 C-2 6.66 -2 7.32 -2 8 C-6 9.33333333 -10 10.66666667 -14 12 C-14 12.66 -14 13.32 -14 14 C-14.66 14 -15.32 14 -16 14 C-16 14.66 -16 15.32 -16 16 C-16.66 16 -17.32 16 -18 16 C-18 16.66 -18 17.32 -18 18 C-19.32 18 -20.64 18 -22 18 C-22 18.66 -22 19.32 -22 20 C-22.66 20 -23.32 20 -24 20 C-22.91001721 16.73005164 -22.4839565 16.34568321 -19.8125 14.4375 C-18.75289063 13.67179687 -18.75289063 13.67179687 -17.671875 12.890625 C-16.79015625 12.26671875 -15.9084375 11.6428125 -15 11 C-13.7965084 10.14113847 -12.59341164 9.28172351 -11.390625 8.421875 C-9.48295407 7.05813786 -7.57434521 5.69589828 -5.66137695 4.33959961 C-2.70381283 2.32529797 -2.70381283 2.32529797 0 0 Z " fill="#3294DF" transform="translate(298,54)"/>
<path d="M0 0 C0.66 0 1.32 0 2 0 C2 0.66 2 1.32 2 2 C3.98 1.34 5.96 0.68 8 0 C7.67 0.66 7.34 1.32 7 2 C6.34 2 5.68 2 5 2 C4.75507813 2.56203125 4.51015625 3.1240625 4.2578125 3.703125 C2.77073461 6.41865854 0.95937218 8.46391438 -1.125 10.75 C-2.21167969 11.94882812 -2.21167969 11.94882812 -3.3203125 13.171875 C-3.87460937 13.77515625 -4.42890625 14.3784375 -5 15 C-5.33 14.01 -5.66 13.02 -6 12 C-5.34 12 -4.68 12 -4 12 C-4 11.34 -4 10.68 -4 10 C-3.34 10 -2.68 10 -2 10 C-2 9.34 -2 8.68 -2 8 C-2.66 8 -3.32 8 -4 8 C-4 6.68 -4 5.36 -4 4 C-3.34 4 -2.68 4 -2 4 C-2 3.34 -2 2.68 -2 2 C-1.34 2 -0.68 2 0 2 C0 1.34 0 0.68 0 0 Z " fill="#3F9AE0" transform="translate(328,278)"/>
<path d="M0 0 C0.66 0 1.32 0 2 0 C0.48451505 3.54963854 -1.60075999 5.89958735 -4.3125 8.625 C-5.45138672 9.78902344 -5.45138672 9.78902344 -6.61328125 10.9765625 C-9.04376164 13.0371007 -10.94541758 14.13018591 -14 15 C-14.66 14.67 -15.32 14.34 -16 14 C-16 12.68 -16 11.36 -16 10 C-15.34 10 -14.68 10 -14 10 C-14 9.34 -14 8.68 -14 8 C-12.68 8 -11.36 8 -10 8 C-10 8.66 -10 9.32 -10 10 C-9.34 10 -8.68 10 -8 10 C-8 9.34 -8 8.68 -8 8 C-7.34 8 -6.68 8 -6 8 C-6 7.34 -6 6.68 -6 6 C-4.34997172 4.64613064 -2.6825613 3.31321858 -1 2 C-0.67 1.34 -0.34 0.68 0 0 Z " fill="#3996E0" transform="translate(568,348)"/>
<path d="M0 0 C0.66 0 1.32 0 2 0 C2.33 0.99 2.66 1.98 3 3 C1.41796875 5.48046875 1.41796875 5.48046875 -0.8125 8.1875 C-1.54082031 9.08855469 -2.26914062 9.98960937 -3.01953125 10.91796875 C-3.99986328 11.94857422 -3.99986328 11.94857422 -5 13 C-5.66 13 -6.32 13 -7 13 C-7 13.66 -7 14.32 -7 15 C-7.66 15 -8.32 15 -9 15 C-9.66 16.32 -10.32 17.64 -11 19 C-11.33 18.01 -11.66 17.02 -12 16 C-11.34 16 -10.68 16 -10 16 C-10 15.34 -10 14.68 -10 14 C-9.34 14 -8.68 14 -8 14 C-8 13.34 -8 12.68 -8 12 C-7.34 12 -6.68 12 -6 12 C-6.185625 11.236875 -6.37125 10.47375 -6.5625 9.6875 C-7 7 -7 7 -6 4 C-5.01 3.67 -4.02 3.34 -3 3 C-3 3.66 -3 4.32 -3 5 C-2.34 4.67 -1.68 4.34 -1 4 C-0.34786708 1.97536745 -0.34786708 1.97536745 0 0 Z " fill="#3D97DD" transform="translate(348,258)"/>
<path d="M0 0 C1.32 0.33 2.64 0.66 4 1 C3.20335937 1.72445313 2.40671875 2.44890625 1.5859375 3.1953125 C0.51536078 4.17158534 -0.55493381 5.14816761 -1.625 6.125 C-2.44943604 6.87680542 -2.44943604 6.87680542 -3.29052734 7.64379883 C-6.14499432 10.2583484 -8.93759864 12.89932109 -11.625 15.6875 C-14 18 -14 18 -16 18 C-16 17.34 -16 16.68 -16 16 C-15.34 16 -14.68 16 -14 16 C-14 15.34 -14 14.68 -14 14 C-12.125 11.875 -12.125 11.875 -10 10 C-9.34 10 -8.68 10 -8 10 C-8 9.34 -8 8.68 -8 8 C-7.34 8 -6.68 8 -6 8 C-6 7.34 -6 6.68 -6 6 C-5.34 6 -4.68 6 -4 6 C-3.34 4.68 -2.68 3.36 -2 2 C-1.34 2 -0.68 2 0 2 C0 1.34 0 0.68 0 0 Z " fill="#3A93D9" transform="translate(528,386)"/>
<path d="M0 0 C1.65 0 3.3 0 5 0 C5.33 0.66 5.66 1.32 6 2 C7.65 2 9.3 2 11 2 C11 3.98 11 5.96 11 8 C11.99 8.33 12.98 8.66 14 9 C13.67 9.99 13.34 10.98 13 12 C11.39490066 10.56354149 9.79095576 9.12579294 8.1875 7.6875 C7.29417969 6.88699219 6.40085938 6.08648437 5.48046875 5.26171875 C3.60073214 3.54775419 1.77407253 1.82122396 0 0 Z " fill="#E0F2F7" transform="translate(229,356)"/>
<path d="M0 0 C0 3.59857954 -0.95830515 5.09451118 -3 8 C-3.66 8 -4.32 8 -5 8 C-4.34 10.31 -3.68 12.62 -3 15 C-4.32 14.67 -5.64 14.34 -7 14 C-7 13.34 -7 12.68 -7 12 C-7.66 12 -8.32 12 -9 12 C-9 13.32 -9 14.64 -9 16 C-10.32 15.67 -11.64 15.34 -13 15 C-8.71 10.05 -4.42 5.1 0 0 Z " fill="#4D9EDE" transform="translate(329,352)"/>
<path d="M0 0 C0.66 0 1.32 0 2 0 C2.33 1.32 2.66 2.64 3 4 C3.99 4 4.98 4 6 4 C6 3.34 6 2.68 6 2 C6.66 2 7.32 2 8 2 C6.84826645 4.46800047 5.95216435 6.04783565 4 8 C4.22743305 10.95662966 4.61235938 12.55033688 6.5625 14.8125 C7.036875 15.204375 7.51125 15.59625 8 16 C6.68 16 5.36 16 4 16 C4 15.34 4 14.68 4 14 C3.34 14 2.68 14 2 14 C2 10.7 2 7.4 2 4 C1.34 4 0.68 4 0 4 C0 2.68 0 1.36 0 0 Z " fill="#419BE0" transform="translate(198,322)"/>
<path d="M0 0 C1 3 1 3 0.3125 5.625 C-0.3371875 6.800625 -0.3371875 6.800625 -1 8 C-1.61875 8.12375 -2.2375 8.2475 -2.875 8.375 C-5.61457759 9.18075812 -5.87682557 10.12292415 -7.25 12.5625 C-7.8275 13.696875 -8.405 14.83125 -9 16 C-10.32 15.67 -11.64 15.34 -13 15 C-11.625 13 -11.625 13 -10 11 C-9.34 11 -8.68 11 -8 11 C-7.73445313 10.41734375 -7.46890625 9.8346875 -7.1953125 9.234375 C-5.96697004 6.93825772 -4.59685061 5.19643982 -2.875 3.25 C-2.33617187 2.63640625 -1.79734375 2.0228125 -1.2421875 1.390625 C-0.62730469 0.70226562 -0.62730469 0.70226562 0 0 Z " fill="#D7F1FA" transform="translate(319,296)"/>
<path d="M0 0 C0 3 0 3 -1 6 C-1.66 6 -2.32 6 -3 6 C-3 7.32 -3 8.64 -3 10 C-4.32 10 -5.64 10 -7 10 C-6.67 11.65 -6.34 13.3 -6 15 C-7.65 14.67 -9.3 14.34 -11 14 C-7.80173015 8.88276824 -4.04165813 4.47307108 0 0 Z " fill="#53A5E1" transform="translate(315,368)"/>
<path d="M0 0 C0.99 0 1.98 0 3 0 C3 0.66 3 1.32 3 2 C5.64 2 8.28 2 11 2 C11 2.66 11 3.32 11 4 C11.66 4 12.32 4 13 4 C13 4.66 13 5.32 13 6 C11.68 6 10.36 6 9 6 C8.67 6.66 8.34 7.32 8 8 C6.66372225 6.85760183 5.33104612 5.71098945 4 4.5625 C3.2575 3.92441406 2.515 3.28632813 1.75 2.62890625 C1.1725 2.09136719 0.595 1.55382812 0 1 C0 0.67 0 0.34 0 0 Z " fill="#E6F9FE" transform="translate(205,336)"/>
<path d="M0 0 C3.78091617 1.34313185 6.65651916 3.02964684 9.8125 5.5 C10.60269531 6.1084375 11.39289063 6.716875 12.20703125 7.34375 C12.79871094 7.8903125 13.39039063 8.436875 14 9 C14 9.66 14 10.32 14 11 C12.68 11 11.36 11 10 11 C10 10.34 10 9.68 10 9 C9.34 9 8.68 9 8 9 C8 8.34 8 7.68 8 7 C7.34 7 6.68 7 6 7 C6 6.34 6 5.68 6 5 C5.34 5 4.68 5 4 5 C4 4.34 4 3.68 4 3 C2.68 3 1.36 3 0 3 C0 2.01 0 1.02 0 0 Z " fill="#3992D7" transform="translate(338,57)"/>
<path d="M0 0 C2 2 2 2 2.3125 4.3125 C1.93612625 7.54931424 0.93256291 9.39847301 -1 12 C-1.66 12 -2.32 12 -3 12 C-3 12.66 -3 13.32 -3 14 C-3.66 14 -4.32 14 -5 14 C-5 15.32 -5 16.64 -5 18 C-6.32 17.67 -7.64 17.34 -9 17 C-8.33871094 16.26394531 -7.67742187 15.52789062 -6.99609375 14.76953125 C-5.72958984 13.30580078 -5.72958984 13.30580078 -4.4375 11.8125 C-3.59058594 10.84957031 -2.74367188 9.88664062 -1.87109375 8.89453125 C0.3129072 6.17743623 0.3129072 6.17743623 -0.28515625 3.19921875 C-0.52105469 2.47347656 -0.75695312 1.74773437 -1 1 C-0.67 0.67 -0.34 0.34 0 0 Z " fill="#52A1DE" transform="translate(407,254)"/>
<path d="M0 0 C-1.40191353 2.99254618 -3.03367489 5.5954611 -5 8.25 C-5.515625 8.95640625 -6.03125 9.6628125 -6.5625 10.390625 C-7.036875 10.92171875 -7.51125 11.4528125 -8 12 C-8.66 12 -9.32 12 -10 12 C-10 11.34 -10 10.68 -10 10 C-10.66 10 -11.32 10 -12 10 C-12 9.34 -12 8.68 -12 8 C-10.02 7.67 -8.04 7.34 -6 7 C-6 6.01 -6 5.02 -6 4 C-2.57142857 0 -2.57142857 0 0 0 Z " fill="#3894DD" transform="translate(418,504)"/>
<path d="M0 0 C0.99 0.33 1.98 0.66 3 1 C2.34 1 1.68 1 1 1 C1 1.66 1 2.32 1 3 C0.34 3 -0.32 3 -1 3 C-1 3.66 -1 4.32 -1 5 C-1.66 5 -2.32 5 -3 5 C-3 5.66 -3 6.32 -3 7 C-4.32 7 -5.64 7 -7 7 C-7 7.66 -7 8.32 -7 9 C-7.66 9 -8.32 9 -9 9 C-9 9.66 -9 10.32 -9 11 C-10.32 10.67 -11.64 10.34 -13 10 C-13 9.34 -13 8.68 -13 8 C-11.96875 7.608125 -10.9375 7.21625 -9.875 6.8125 C-7.06007015 5.63296462 -5.0135714 4.29176415 -2.75 2.25 C-1.8425 1.5075 -0.935 0.765 0 0 Z " fill="#3D96DA" transform="translate(269,75)"/>
<path d="M0 0 C2.69904388 0.92538647 4.85307701 2.10959465 7.1875 3.75 C7.5175 4.74 7.8475 5.73 8.1875 6.75 C7.5275 6.75 6.8675 6.75 6.1875 6.75 C6.1875 6.09 6.1875 5.43 6.1875 4.75 C5.5275 4.75 4.8675 4.75 4.1875 4.75 C4.1875 4.09 4.1875 3.43 4.1875 2.75 C3.5275 2.75 2.8675 2.75 2.1875 2.75 C1.8575 3.41 1.5275 4.07 1.1875 4.75 C-1.2875 3.76 -1.2875 3.76 -3.8125 2.75 C-3.8125 3.41 -3.8125 4.07 -3.8125 4.75 C-4.4725 4.75 -5.1325 4.75 -5.8125 4.75 C-3.45229058 -0.47617801 -3.45229058 -0.47617801 0 0 Z " fill="#3594DE" transform="translate(317.8125,41.25)"/>
<path d="M0 0 C0.66 0 1.32 0 2 0 C1.34 1.98 0.68 3.96 0 6 C-0.66 6 -1.32 6 -2 6 C-2 7.32 -2 8.64 -2 10 C-2.66 10 -3.32 10 -4 10 C-4 10.66 -4 11.32 -4 12 C-4.66 12 -5.32 12 -6 12 C-6 12.66 -6 13.32 -6 14 C-6.66 14 -7.32 14 -8 14 C-5.66840232 9.14250484 -2.98828911 4.48243367 0 0 Z " fill="#3D96DD" transform="translate(72,298)"/>
<path d="M0 0 C3.25543229 0.34879632 4.01873107 1.02133261 6.25 3.5625 C6.8275 4.366875 7.405 5.17125 8 6 C7.01 6.33 6.02 6.66 5 7 C4.67 6.01 4.34 5.02 4 4 C3.34 4 2.68 4 2 4 C1.34 5.32 0.68 6.64 0 8 C-0.66 8 -1.32 8 -2 8 C-2 7.34 -2 6.68 -2 6 C-1.34 6 -0.68 6 0 6 C0 4.02 0 2.04 0 0 Z " fill="#3E9ADF" transform="translate(252,376)"/>
<path d="M0 0 C1.32 0 2.64 0 4 0 C4 0.66 4 1.32 4 2 C4.66 2 5.32 2 6 2 C6 1.34 6 0.68 6 0 C6.66 0 7.32 0 8 0 C6.55746343 3.36591866 4.66735273 5.51047079 2 8 C2 6.68 2 5.36 2 4 C1.34 4 0.68 4 0 4 C0 2.68 0 1.36 0 0 Z " fill="#EBF9FC" transform="translate(322,350)"/>
<path d="M0 0 C0.33 0.99 0.66 1.98 1 3 C0.01 4.485 0.01 4.485 -1 6 C-1 7.32 -1 8.64 -1 10 C-1.66 10 -2.32 10 -3 10 C-3 9.34 -3 8.68 -3 8 C-3.99 8.66 -4.98 9.32 -6 10 C-6.99 10 -7.98 10 -9 10 C-7.55401676 7.10803353 -5.30346813 5.24862365 -3 3 C-2.401875 2.401875 -1.80375 1.80375 -1.1875 1.1875 C-0.795625 0.795625 -0.40375 0.40375 0 0 Z " fill="#D5F0F9" transform="translate(287,332)"/>
<path d="M0 0 C-1.80412643 3.26460973 -2.83394693 4.88929795 -6 7 C-6 5.35 -6 3.7 -6 2 C-6.66 2 -7.32 2 -8 2 C-8 1.34 -8 0.68 -8 0 C-4.71023192 -1.09658936 -3.28696233 -0.79953138 0 0 Z " fill="#3D9BE0" transform="translate(360,250)"/>
<path d="M0 0 C2.97 1.98 2.97 1.98 6 4 C5.67 5.32 5.34 6.64 5 8 C3.68 8 2.36 8 1 8 C1 7.34 1 6.68 1 6 C0.34 6 -0.32 6 -1 6 C-1 5.34 -1 4.68 -1 4 C-0.34 4 0.32 4 1 4 C1 3.34 1 2.68 1 2 C0.34 1.67 -0.32 1.34 -1 1 C-0.67 0.67 -0.34 0.34 0 0 Z " fill="#3595E0" transform="translate(377,86)"/>
<path d="M0 0 C4.51045941 2.46025059 8.18504423 5.60282037 12 9 C10.68 9.33 9.36 9.66 8 10 C7.34 8.68 6.68 7.36 6 6 C4.68 6 3.36 6 2 6 C2 4.68 2 3.36 2 2 C1.34 2 0.68 2 0 2 C0 1.34 0 0.68 0 0 Z " fill="#4A9BDA" transform="translate(260,382)"/>
<path d="M0 0 C0.66 0 1.32 0 2 0 C2 0.66 2 1.32 2 2 C2.86625 2.37125 2.86625 2.37125 3.75 2.75 C6.3002997 4.16683317 8.01785701 5.87627537 10 8 C6.28111761 7.49287967 3.26545761 6.88391785 0 5 C0 3.35 0 1.7 0 0 Z " fill="#E7F5F6" transform="translate(390,242)"/>
<path d="M0 0 C0.66 1.32 1.32 2.64 2 4 C1.01 4 0.02 4 -1 4 C-1 4.66 -1 5.32 -1 6 C-1.99 6.66 -2.98 7.32 -4 8 C-4.72382467 10.05925139 -4.72382467 10.05925139 -5 12 C-6.32 11.67 -7.64 11.34 -9 11 C-6.03 7.37 -3.06 3.74 0 0 Z " fill="#53A1DC" transform="translate(349,328)"/>
<path d="M0 0 C0.33 0.66 0.66 1.32 1 2 C1.66 2 2.32 2 3 2 C3 2.66 3 3.32 3 4 C1.68 3.67 0.36 3.34 -1 3 C-1 4.65 -1 6.3 -1 8 C-2.98 8.33 -4.96 8.66 -7 9 C-2.85714286 2.57142857 -2.85714286 2.57142857 0 0 Z " fill="#51A2E0" transform="translate(373,300)"/>
<path d="M0 0 C1.32 0 2.64 0 4 0 C5.35439668 2.70879335 5.06501451 5.00933268 5 8 C3.35 8 1.7 8 0 8 C0 7.34 0 6.68 0 6 C0.66 6 1.32 6 2 6 C2 4.68 2 3.36 2 2 C1.34 2 0.68 2 0 2 C0 1.34 0 0.68 0 0 Z " fill="#2098F1" transform="translate(544,200)"/>
<path d="M0 0 C3.3 0 6.6 0 10 0 C10 0.66 10 1.32 10 2 C9.34 2 8.68 2 8 2 C7.67 2.66 7.34 3.32 7 4 C4.69 3.67 2.38 3.34 0 3 C0 2.01 0 1.02 0 0 Z " fill="#3193DE" transform="translate(144,476)"/>
<path d="M0 0 C0.99 0 1.98 0 3 0 C1.44396229 3.81936528 -0.95604931 6.26044438 -4 9 C-4.66 9 -5.32 9 -6 9 C-6 8.01 -6 7.02 -6 6 C-5.34 6 -4.68 6 -4 6 C-4 5.34 -4 4.68 -4 4 C-3.34 4 -2.68 4 -2 4 C-2 3.34 -2 2.68 -2 2 C-1.34 2 -0.68 2 0 2 C0 1.34 0 0.68 0 0 Z " fill="#3B94D8" transform="translate(540,374)"/>
<path d="M0 0 C1.32 0 2.64 0 4 0 C4 0.66 4 1.32 4 2 C5.32 2 6.64 2 8 2 C8 1.34 8 0.68 8 0 C8.66 0 9.32 0 10 0 C10 1.32 10 2.64 10 4 C9.34 4 8.68 4 8 4 C7.67 4.66 7.34 5.32 7 6 C5.83054208 5.19152271 4.66449539 4.37810888 3.5 3.5625 C2.8503125 3.11003906 2.200625 2.65757812 1.53125 2.19140625 C1.0259375 1.79824219 0.520625 1.40507812 0 1 C0 0.67 0 0.34 0 0 Z " fill="#DEF6FC" transform="translate(256,378)"/>
<path d="M0 0 C0.66 0 1.32 0 2 0 C1.34 1.98 0.68 3.96 0 6 C-0.66 6 -1.32 6 -2 6 C-2 6.66 -2 7.32 -2 8 C-2.66 8 -3.32 8 -4 8 C-4 8.99 -4 9.98 -4 11 C-4.66 11 -5.32 11 -6 11 C-5.39096941 7.90694578 -4.40131197 5.80360238 -2.5625 3.25 C-2.13066406 2.63640625 -1.69882812 2.0228125 -1.25390625 1.390625 C-0.63322266 0.70226562 -0.63322266 0.70226562 0 0 Z " fill="#3993D7" transform="translate(58,320)"/>
<path d="M0 0 C1.32 0.33 2.64 0.66 4 1 C1.03 4.63 -1.94 8.26 -5 12 C-5.33 10.68 -5.66 9.36 -6 8 C-5.34 8 -4.68 8 -4 8 C-4 7.34 -4 6.68 -4 6 C-3.34 6 -2.68 6 -2 6 C-2 5.34 -2 4.68 -2 4 C-1.34 4 -0.68 4 0 4 C0 2.68 0 1.36 0 0 Z " fill="#DAF5FC" transform="translate(398,266)"/>
<path d="M0 0 C0.66 0.33 1.32 0.66 2 1 C1.67 1.66 1.34 2.32 1 3 C0.34 3 -0.32 3 -1 3 C-0.67 2.01 -0.34 1.02 0 0 Z M-3 4 C-2 7 -2 7 -2.9375 9.1875 C-3.4634375 10.0846875 -3.4634375 10.0846875 -4 11 C-4.66 11 -5.32 11 -6 11 C-6 11.66 -6 12.32 -6 13 C-6.66 13 -7.32 13 -8 13 C-6.7508258 9.54074837 -5.32472205 6.85306797 -3 4 Z " fill="#3694DC" transform="translate(84,281)"/>
<path d="M0 0 C0.99 0.33 1.98 0.66 3 1 C3 2.32 3 3.64 3 5 C3.66 5 4.32 5 5 5 C4.67 6.32 4.34 7.64 4 9 C3.34 9 2.68 9 2 9 C0.50178941 5.62902617 0 3.79557881 0 0 Z " fill="#3095E2" transform="translate(81,203)"/>
<path d="M0 0 C0.33 1.32 0.66 2.64 1 4 C0.01 3.67 -0.98 3.34 -2 3 C-2 3.66 -2 4.32 -2 5 C-3.32 5 -4.64 5 -6 5 C-6 3.68 -6 2.36 -6 1 C-4.02 0.67 -2.04 0.34 0 0 Z " fill="#2497F2" transform="translate(570,345)"/>
<path d="M0 0 C1.65 0 3.3 0 5 0 C5 0.66 5 1.32 5 2 C5.66 2 6.32 2 7 2 C7 2.66 7 3.32 7 4 C7.66 4 8.32 4 9 4 C9.33 5.32 9.66 6.64 10 8 C8.51714758 7.04737966 7.03881799 6.08771595 5.5625 5.125 C4.73878906 4.59132813 3.91507812 4.05765625 3.06640625 3.5078125 C1 2 1 2 0 0 Z " fill="#479EDE" transform="translate(265,330)"/>
<path d="M0 0 C2.00720923 0.28674418 4.0085944 0.61866701 6 1 C3.47043472 4.0916909 0.77545388 4.90931332 -3 6 C-1.125 1.125 -1.125 1.125 0 0 Z " fill="#DDF4F9" transform="translate(223,302)"/>
<path d="M0 0 C2.64 0 5.28 0 8 0 C8 1.32 8 2.64 8 4 C6.68 4 5.36 4 4 4 C4 3.34 4 2.68 4 2 C2.68 2 1.36 2 0 2 C0 1.34 0 0.68 0 0 Z " fill="#2397F1" transform="translate(224,298)"/>
<path d="M0 0 C0.66 0 1.32 0 2 0 C2.2475 0.78375 2.495 1.5675 2.75 2.375 C4.15389099 5.32317108 5.00675737 5.9024777 8 7 C8 7.66 8 8.32 8 9 C6.02 8.34 4.04 7.68 2 7 C2 6.34 2 5.68 2 5 C1.34 5 0.68 5 0 5 C0 3.35 0 1.7 0 0 Z " fill="#3393E0" transform="translate(476,161)"/>
<path d="M0 0 C0.66 0.33 1.32 0.66 2 1 C2 3.64 2 6.28 2 9 C1.01 8.67 0.02 8.34 -1 8 C-1.04241723 5.66705225 -1.04092937 3.33297433 -1 1 C-0.67 0.67 -0.34 0.34 0 0 Z " fill="#2297F2" transform="translate(166,103)"/>
<path d="M0 0 C0.99 0.33 1.98 0.66 3 1 C1.02 3.31 -0.96 5.62 -3 8 C-3.33 6.68 -3.66 5.36 -4 4 C-3.34 4 -2.68 4 -2 4 C-1.34 2.68 -0.68 1.36 0 0 Z " fill="#DFF4F9" transform="translate(302,380)"/>
<path d="M0 0 C1 4 1 4 1 6 C0.34 6 -0.32 6 -1 6 C-1 6.66 -1 7.32 -1 8 C-2.65 8 -4.3 8 -6 8 C-4.02 5.36 -2.04 2.72 0 0 Z " fill="#DDF2F6" transform="translate(333,280)"/>
<path d="M0 0 C2.31 1.65 4.62 3.3 7 5 C3 6 3 6 1 6 C1 5.34 1 4.68 1 4 C0.34 4 -0.32 4 -1 4 C-0.67 2.68 -0.34 1.36 0 0 Z " fill="#3494DF" transform="translate(369,80)"/>
<path d="M0 0 C0.33 0.66 0.66 1.32 1 2 C1.66 2 2.32 2 3 2 C3 2.66 3 3.32 3 4 C3.66 4 4.32 4 5 4 C5 4.66 5 5.32 5 6 C4.01 6.33 3.02 6.66 2 7 C1.01 6.34 0.02 5.68 -1 5 C-0.67 3.35 -0.34 1.7 0 0 Z " fill="#2599F4" transform="translate(87,356)"/>
<path d="M0 0 C1.98 0 3.96 0 6 0 C4.35 1.65 2.7 3.3 1 5 C0.01 4.01 -0.98 3.02 -2 2 C-1.34 2 -0.68 2 0 2 C0 1.34 0 0.68 0 0 Z " fill="#4299DD" transform="translate(278,336)"/>
<path d="M0 0 C1.98 0 3.96 0 6 0 C5.01 0.495 5.01 0.495 4 1 C4 2.65 4 4.3 4 6 C2.35 5.01 0.7 4.02 -1 3 C-0.67 2.01 -0.34 1.02 0 0 Z " fill="#3E99E0" transform="translate(258,322)"/>
<path d="M0 0 C0.66 0 1.32 0 2 0 C1.67 2.64 1.34 5.28 1 8 C0.01 8 -0.98 8 -2 8 C-2 6.02 -2 4.04 -2 2 C-1.34 2 -0.68 2 0 2 C0 1.34 0 0.68 0 0 Z " fill="#3392DF" transform="translate(542,232)"/>
<path d="M0 0 C0.99 0.33 1.98 0.66 3 1 C2.34 1 1.68 1 1 1 C1 1.99 1 2.98 1 4 C-0.32 4.33 -1.64 4.66 -3 5 C-3 5.66 -3 6.32 -3 7 C-3.99 7 -4.98 7 -6 7 C-4.75686537 3.27059611 -3.23014784 2.15343189 0 0 Z " fill="#3C92D7" transform="translate(307,47)"/>
<path d="M0 0 C2.31 1.65 4.62 3.3 7 5 C6.67 5.66 6.34 6.32 6 7 C4.35 7 2.7 7 1 7 C0.67 4.69 0.34 2.38 0 0 Z " fill="#409EE4" transform="translate(231,358)"/>
<path d="M0 0 C0.33 0.99 0.66 1.98 1 3 C-1.31 5.31 -3.62 7.62 -6 10 C-6.66 9.67 -7.32 9.34 -8 9 C-5.36 6.03 -2.72 3.06 0 0 Z " fill="#C6EAFA" transform="translate(351,260)"/>
<path d="M0 0 C0.66 0 1.32 0 2 0 C2 1.98 2 3.96 2 6 C1.34 6 0.68 6 0 6 C0 6.66 0 7.32 0 8 C-0.66 8 -1.32 8 -2 8 C-1.125 1.125 -1.125 1.125 0 0 Z " fill="#3194DF" transform="translate(162,128)"/>
<path d="M0 0 C0.53625 0.28875 1.0725 0.5775 1.625 0.875 C4.35280484 2.16711808 7.12612718 3.08558592 10 4 C10 4.33 10 4.66 10 5 C7.36 5 4.72 5 2 5 C2 4.34 2 3.68 2 3 C1.34 3 0.68 3 0 3 C0 2.01 0 1.02 0 0 Z " fill="#52A0DC" transform="translate(278,397)"/>
<path d="M0 0 C5.875 3.75 5.875 3.75 7 6 C4.625 6.1875 4.625 6.1875 2 6 C0 3 0 3 0 0 Z " fill="#3B97DD" transform="translate(240,366)"/>
<path d="M0 0 C0.66 0 1.32 0 2 0 C1.67 1.65 1.34 3.3 1 5 C-0.65 5.33 -2.3 5.66 -4 6 C-4 5.34 -4 4.68 -4 4 C-3.34 4 -2.68 4 -2 4 C-2 3.34 -2 2.68 -2 2 C-1.34 2 -0.68 2 0 2 C0 1.34 0 0.68 0 0 Z " fill="#F2FAF6" transform="translate(340,334)"/>
<path d="M0 0 C0.66 0 1.32 0 2 0 C2 0.66 2 1.32 2 2 C2.66 2 3.32 2 4 2 C4 2.66 4 3.32 4 4 C2.02 4.33 0.04 4.66 -2 5 C-2.33 4.01 -2.66 3.02 -3 2 C-2.01 2 -1.02 2 0 2 C0 1.34 0 0.68 0 0 Z " fill="#3392E2" transform="translate(58,330)"/>
<path d="M0 0 C0.66 0 1.32 0 2 0 C2 0.66 2 1.32 2 2 C2.66 2 3.32 2 4 2 C4 3.32 4 4.64 4 6 C2.68 6 1.36 6 0 6 C0 4.02 0 2.04 0 0 Z " fill="#2498F2" transform="translate(554,322)"/>
<path d="M0 0 C0 2.62113708 -0.31292445 4.50935112 -1 7 C-2.98 7.33 -4.96 7.66 -7 8 C-6.67 7.34 -6.34 6.68 -6 6 C-5.34 6 -4.68 6 -4 6 C-3.71125 5.38125 -3.4225 4.7625 -3.125 4.125 C-2 2 -2 2 0 0 Z " fill="#54A2DA" transform="translate(359,317)"/>
<path d="M0 0 C0.66 0 1.32 0 2 0 C2 1.98 2 3.96 2 6 C0.68 6 -0.64 6 -2 6 C-2 4.68 -2 3.36 -2 2 C-1.34 2 -0.68 2 0 2 C0 1.34 0 0.68 0 0 Z " fill="#2497F2" transform="translate(280,320)"/>
<path d="M0 0 C0.99 0.33 1.98 0.66 3 1 C1.70700306 3.88437779 0.34058637 5.87219421 -2 8 C-2 6.35 -2 4.7 -2 3 C-1.34 3 -0.68 3 0 3 C0 2.01 0 1.02 0 0 Z " fill="#3A95DE" transform="translate(364,240)"/>
<path d="M0 0 C2.4375 0.25 2.4375 0.25 5 1 C5.66 1.99 6.32 2.98 7 4 C5.02 4 3.04 4 1 4 C1 3.34 1 2.68 1 2 C0.34 1.67 -0.32 1.34 -1 1 C-0.67 0.67 -0.34 0.34 0 0 Z " fill="#399AE5" transform="translate(211,344)"/>
<path d="M0 0 C0.99 0 1.98 0 3 0 C2.43628586 3.26954202 1.50037734 4.82575883 -1 7 C-1.04254356 5.00045254 -1.04080783 2.99958364 -1 1 C-0.67 0.67 -0.34 0.34 0 0 Z " fill="#409ADE" transform="translate(219,302)"/>
<path d="M0 0 C0.66 0 1.32 0 2 0 C0.79618552 2.49361571 -0.45428722 4.68143083 -2 7 C-2.66 7 -3.32 7 -4 7 C-3.6875 5.0625 -3.6875 5.0625 -3 3 C-2.01 2.67 -1.02 2.34 0 2 C0 1.34 0 0.68 0 0 Z " fill="#3793D9" transform="translate(386,544)"/>
<path d="M0 0 C0.66 0 1.32 0 2 0 C0.55746343 3.36591866 -1.33264727 5.51047079 -4 8 C-4 6.68 -4 5.36 -4 4 C-3.34 4 -2.68 4 -2 4 C-2 3.34 -2 2.68 -2 2 C-1.34 2 -0.68 2 0 2 C0 1.34 0 0.68 0 0 Z " fill="#3395E0" transform="translate(404,520)"/>
<path d="M0 0 C0.99 0 1.98 0 3 0 C3 0.66 3 1.32 3 2 C4.32 2 5.64 2 7 2 C7 2.99 7 3.98 7 5 C4.0625 4.1875 4.0625 4.1875 1 3 C0.67 2.01 0.34 1.02 0 0 Z " fill="#3794DD" transform="translate(349,534)"/>
<path d="M0 0 C0 3.20395416 -0.74335022 5.09399739 -2 8 C-2.99 7.34 -3.98 6.68 -5 6 C-3.35 4.02 -1.7 2.04 0 0 Z " fill="#4DA3E6" transform="translate(379,293)"/>
<path d="M0 0 C1.65 0 3.3 0 5 0 C5.33 1.98 5.66 3.96 6 6 C3.97945196 4.35830472 1.97956942 2.69088222 0 1 C0 0.67 0 0.34 0 0 Z " fill="#56A3DC" transform="translate(385,236)"/>
</svg>
